<?xml version="1.0" standalone="no"?><!DOCTYPE svg PUBLIC "-//W3C//DTD SVG 1.1//EN" "http://www.w3.org/Graphics/SVG/1.1/DTD/svg11.dtd"><svg t="1729836679888" class="icon" viewBox="0 0 1024 1024" version="1.1" xmlns="http://www.w3.org/2000/svg" p-id="17105" xmlns:xlink="http://www.w3.org/1999/xlink" width="200" height="200"><path d="M837.932669 791.182906v-0.056312h-56.496976v-229.458811h-0.081909c0-148.143301-120.089348-268.23265-268.23265-268.23265s-268.23265 120.089348-268.23265 268.23265v229.458811H189.481927v0.066551c-63.136752 1.366862-113.905192 52.939038-113.905192 116.398308 0 64.319318 52.145541 116.46486 116.46486 116.46486 1.059702 0 2.093808-0.092148 3.14839-0.107506h637.372502c1.054583 0.030716 2.083569 0.107506 3.143271 0.107506 64.314199 0 116.46486-52.145541 116.46486-116.46486 0-63.577015-50.952736-115.225981-114.237949-116.408547z m-324.811535-431.201544c111.38136 0 201.681301 90.299941 201.681302 201.686421h0.025596v229.458811H311.491026v-229.458811h-0.051193c0-111.38648 90.294822-201.686421 201.681301-201.686421z m323.285973 597.416096H191.345365c-27.199024-0.368592-49.145611-22.504594-49.145611-49.806005 0-27.521542 22.315179-49.836721 49.836721-49.836721h105.273995l-0.040955-0.081909h433.203204a0.61432 0.61432 0 0 1-0.040955 0.081909h105.273994c27.516423 0 49.821363 22.315179 49.821363 49.836721 0.025597 27.286053-21.92099 49.422055-49.120014 49.806005zM514.104046 215.69292a33.31151 33.31151 0 0 0 33.31151-33.316629l-1.162089-147.482907a33.31151 33.31151 0 1 0-66.623019 0l1.162089 147.482907a33.31151 33.31151 0 0 0 33.311509 33.316629zM319.349205 242.866347a33.316629 33.316629 0 1 0 58.083969-32.635757l-73.257677-128.003839a33.316629 33.316629 0 0 0-58.083969 32.635757l73.257677 128.003839zM209.815924 377.289832a33.316629 33.316629 0 0 0 33.500925-57.592513L115.251577 246.547149a33.31151 33.31151 0 1 0-33.500925 57.587394l128.065272 73.155289zM662.84631 255.99744a33.30639 33.30639 0 0 0 45.362423-12.726665l73.273034-128.00384a33.321748 33.321748 0 0 0-12.726665-45.362423 33.30639 33.30639 0 0 0-45.357304 12.726666l-73.267915 128.003839a33.326868 33.326868 0 0 0 12.716427 45.362423zM956.424785 259.017848a33.30639 33.30639 0 0 0-45.5416-12.040675L782.812794 320.127343a33.31151 33.31151 0 0 0 33.490687 57.592513l128.07551-73.155289a33.326868 33.326868 0 0 0 12.045794-45.546719z" fill="#D81E06" p-id="17106"></path></svg>