<?xml version="1.0" standalone="no"?><!DOCTYPE svg PUBLIC "-//W3C//DTD SVG 1.1//EN" "http://www.w3.org/Graphics/SVG/1.1/DTD/svg11.dtd"><svg t="1729320452056" class="icon" viewBox="0 0 1024 1024" version="1.1" xmlns="http://www.w3.org/2000/svg" p-id="7815" xmlns:xlink="http://www.w3.org/1999/xlink" width="200" height="200"><path d="M940.8 627.2l-44.8-19.2c44.8-134.4 12.8-281.6-96-390.4-147.2-147.2-390.4-147.2-544 0-12.8 19.2-12.8 38.4 0 51.2 12.8 12.8 32 12.8 44.8 0 128-128 326.4-128 454.4 0 89.6 89.6 115.2 211.2 76.8 320l-44.8-19.2c-19.2-6.4-32 12.8-25.6 25.6l51.2 102.4c6.4 12.8 12.8 12.8 25.6 6.4l102.4-51.2c12.8 0 12.8-19.2 0-25.6zM723.2 755.2c-128 128-326.4 128-454.4 0-89.6-89.6-115.2-211.2-76.8-320l44.8 19.2c19.2 6.4 32-12.8 25.6-25.6L211.2 320c0-6.4-12.8-12.8-25.6-6.4l-102.4 51.2c-12.8 6.4-12.8 32 0 38.4l44.8 12.8c-44.8 134.4-12.8 281.6 96 390.4 147.2 147.2 390.4 147.2 544 0 12.8-12.8 12.8-32 0-44.8-12.8-12.8-32-12.8-44.8-6.4z" fill="#5C5F70" p-id="7816"></path><path d="M646.4 652.8c51.2 0 89.6-38.4 89.6-89.6 0-44.8-32-76.8-70.4-89.6 0-76.8-64-140.8-140.8-140.8-64 0-115.2 38.4-134.4 89.6-64 0-108.8 51.2-108.8 115.2s51.2 115.2 115.2 115.2h249.6zM345.6 537.6c0-25.6 19.2-51.2 51.2-51.2 25.6 0 51.2-19.2 57.6-38.4 12.8-32 38.4-51.2 76.8-51.2 44.8 0 76.8 32 76.8 76.8 0 25.6 19.2 51.2 51.2 57.6 12.8 0 19.2 12.8 19.2 25.6s-12.8 25.6-25.6 25.6H403.2c-32 6.4-57.6-19.2-57.6-44.8z" fill="#5C5F70" p-id="7817"></path></svg>