<?xml version="1.0" standalone="no"?><!DOCTYPE svg PUBLIC "-//W3C//DTD SVG 1.1//EN" "http://www.w3.org/Graphics/SVG/1.1/DTD/svg11.dtd"><svg t="1729747835640" class="icon" viewBox="0 0 1024 1024" version="1.1" xmlns="http://www.w3.org/2000/svg" p-id="5665" xmlns:xlink="http://www.w3.org/1999/xlink" width="200" height="200"><path d="M993.6 768v-118.4l-64-8c-6.4-19.2-14.4-38.4-25.6-57.6l40-51.2-84.8-83.2-52.8 40c-19.2-9.6-38.4-17.6-57.6-24l-8-64h-120l-8 64c-20.8 4.8-40 12.8-57.6 24l-52.8-40-86.4 83.2 40 51.2c-11.2 19.2-19.2 38.4-25.6 57.6l-64 8V768l62.4 8c6.4 20.8 14.4 41.6 25.6 60.8l-38.4 48 84.8 83.2 48-36.8c19.2 11.2 41.6 20.8 62.4 25.6l8 59.2h120l8-59.2c22.4-6.4 46.4-16 62.4-25.6l48 36.8 84.8-83.2-38.4-48c11.2-19.2 19.2-40 25.6-60.8l64-8z m-116.8 70.4l35.2 44.8-54.4 54.4-44.8-33.6c-33.6 22.4-57.6 28.8-86.4 35.2l-8 52.8H640l-8-54.4c-40-9.6-57.6-17.6-86.4-35.2l-44.8 33.6-52.8-52.8 35.2-44.8c-20.8-32-27.2-49.6-35.2-83.2l-57.6-8V672l59.2-8c8-35.2 16-51.2 35.2-81.6L448 536l54.4-54.4 48 36.8c32-19.2 48-25.6 81.6-32l8-59.2h78.4l8 59.2c33.6 8 49.6 14.4 81.6 32l48-36.8 54.4 52.8-36.8 46.4c20.8 33.6 27.2 49.6 35.2 81.6l59.2 8v75.2l-56 9.6c-9.6 36.8-17.6 54.4-35.2 83.2z" fill="#010101" p-id="5666"></path><path d="M680 588.8c-17.6 0-17.6 1.6-32 1.6l-1.6 1.6c-52.8 14.4-89.6 60.8-89.6 115.2 0 67.2 54.4 121.6 123.2 121.6 67.2 0 123.2-54.4 123.2-121.6 0-64-56-118.4-123.2-118.4z m0 217.6c-54.4 0-99.2-43.2-99.2-97.6 0-54.4 44.8-96 99.2-96 54.4 0 99.2 43.2 99.2 96 0 54.4-44.8 97.6-99.2 97.6zM436.8 432c0-35.2-28.8-64-64-64-14.4 0-25.6 4.8-36.8 11.2l-112-112-16 17.6 112 112c-6.4 9.6-9.6 22.4-9.6 35.2 0 35.2 28.8 64 64 64 33.6-1.6 62.4-28.8 62.4-64z m-102.4 0c0-22.4 17.6-40 40-40s40 17.6 40 40-17.6 40-40 40c-22.4-1.6-40-19.2-40-40z" fill="#010101" p-id="5667"></path><path d="M187.2 636.8l-17.6-17.6-30.4 30.4c-51.2-54.4-81.6-126.4-84.8-206.4H96v-24H56c3.2-78.4 35.2-150.4 84.8-204.8l27.2 27.2 17.6-17.6-27.2-27.2c54.4-49.6 124.8-81.6 204.8-84.8v38.4h24V113.6c76.8 3.2 148.8 33.6 203.2 84.8L563.2 224l17.6 17.6 27.2-27.2c33.6 36.8 60.8 80 73.6 131.2l22.4-6.4c-41.6-144-171.2-244.8-318.4-249.6V32h139.2V8h-304V32h139.2v57.6C177.6 96 30.4 246.4 30.4 432c0 161.6 108.8 297.6 265.6 334.4l4.8-24c-56-12.8-105.6-40-144-75.2l30.4-30.4z" fill="#010101" p-id="5668"></path></svg>