<?xml version="1.0" standalone="no"?><!DOCTYPE svg PUBLIC "-//W3C//DTD SVG 1.1//EN" "http://www.w3.org/Graphics/SVG/1.1/DTD/svg11.dtd"><svg t="1729834687498" class="icon" viewBox="0 0 1050 1024" version="1.1" xmlns="http://www.w3.org/2000/svg" p-id="5634" xmlns:xlink="http://www.w3.org/1999/xlink" width="205.078125" height="200"><path d="M899.70583 152.838564h43.926974c12.760615 0.446359 24.759795-6.065231 31.245128-16.987897a34.474667 34.474667 0 0 0 0-35.367385 34.999795 34.999795 0 0 0-31.245128-16.987897h-144.489026c-19.377231 0-35.18359 15.438769-35.524923 34.658461v139.264a35.866256 35.866256 0 0 0 35.761231 31.744c18.300718 0 33.686974-13.653333 35.708718-31.744V191.225436l9.557333 8.034461a435.488821 435.488821 0 0 1 133.85518 312.346257 435.436308 435.436308 0 0 1-131.754667 313.238974 462.401641 462.401641 0 0 1-435.042461 115.554462 36.443897 36.443897 0 0 0-43.926975 24.733538 35.236103 35.236103 0 0 0 25.941334 42.535385c179.777641 45.318564 370.346667-5.198769 503.414154-133.461334A505.120821 505.120821 0 0 0 1050.260086 514.048a505.068308 505.068308 0 0 0-150.554256-361.209436zM250.883676 730.742154a35.393641 35.393641 0 0 0-35.971282 34.632205v66.743795c-2.625641-3.203282-6.301538-5.198769-9.531077-8.454564A436.512821 436.512821 0 0 1 72.996496 510.844718c0-117.681231 47.681641-230.4 132.332308-312.792615A464.003282 464.003282 0 0 1 640.528804 84.020513a35.551179 35.551179 0 0 0 43.191795-24.654769 35.236103 35.236103 0 0 0-25.442462-42.535385C478.132907-29.354667 286.802445 21.005128 153.419881 149.661538A505.147077 505.147077 0 0 0 0.003676 509.689436a505.068308 505.068308 0 0 0 150.186667 361.340718H105.711984a34.999795 34.999795 0 0 0-31.245129 16.961641 34.474667 34.474667 0 0 0 0 35.367384c6.485333 10.922667 18.458256 17.434256 31.245129 16.987898h143.543794c9.347282 0.157538 18.379487-3.413333 25.074872-9.924923 6.669128-6.485333 10.423795-15.386256 10.450052-24.681026v-139.237743c0-9.294769-3.72841-18.221949-10.423795-24.759795a35.052308 35.052308 0 0 0-25.101129-9.977436l1.575385-1.024h0.052513z m596.020513-152.917333a120.937026 120.937026 0 0 0-84.676923-116.420924v-3.203282c-1.417846-92.81641-69.737026-171.218051-162.080821-185.974153-92.317538-14.729846-182.009436 38.439385-212.676923 126.109538a138.082462 138.082462 0 0 0-25.442461 0 151.18441 151.18441 0 0 0-138.056206 72.073846 148.795077 148.795077 0 0 0 0 154.834051 151.18441 151.18441 0 0 0 138.056206 72.073847H726.781112c66.008615-0.892718 119.282872-53.825641 120.09682-119.309129v-0.183794zM360.399163 627.265641a80.659692 80.659692 0 0 1-80.029538-35.367385 79.294359 79.294359 0 0 1 0-86.934974 80.659692 80.659692 0 0 1 80.029538-35.367385 86.38359 86.38359 0 0 1 37.59918 3.229539c10.502564 5.198769 22.843077 5.198769 33.345641 0 10.134974-5.671385 16.830359-15.858872 17.959384-27.35918 7.325538-63.067897 62.752821-109.699282 126.634667-106.496 63.908103 3.150769 114.346667 55.059692 115.265641 118.547693 0 8.664615-1.050256 17.329231-3.150769 25.783795-2.153026 10.555077 0.577641 21.530256 7.430564 29.906051 6.931692 8.507077 17.539282 13.206974 28.566974 12.629333a50.464821 50.464821 0 0 1 48.443077 22.974359 49.624615 49.624615 0 0 1 0 53.300513c-10.345026 16.252718-29.197128 25.206154-48.443077 22.948103l-363.651282 2.205538z" fill="#1890FF" p-id="5635"></path><path d="M846.877932 577.824821a120.937026 120.937026 0 0 0-84.650666-116.420924v-3.203282c-1.417846-92.81641-69.737026-171.218051-162.080821-185.974153-92.317538-14.729846-182.009436 38.439385-212.676923 126.109538a138.082462 138.082462 0 0 0-25.442461 0 151.18441 151.18441 0 0 0-138.056206 72.073846 148.795077 148.795077 0 0 0 0 154.834051 151.18441 151.18441 0 0 0 138.056206 72.073847H726.781112c66.008615-0.892718 119.282872-53.825641 120.09682-119.309129v-0.183794zM360.425419 627.265641a80.659692 80.659692 0 0 1-80.029538-35.367385 79.294359 79.294359 0 0 1 0-86.934974 80.659692 80.659692 0 0 1 80.029538-35.367385 86.38359 86.38359 0 0 1 37.59918 3.229539c10.502564 5.198769 22.843077 5.198769 33.345641 0 10.134974-5.671385 16.830359-15.858872 17.959385-27.35918 7.325538-63.067897 62.752821-109.699282 126.634666-106.496 63.908103 3.150769 114.346667 55.059692 115.265641 118.547693 0 8.664615-1.050256 17.329231-3.150769 25.783795-2.153026 10.555077 0.577641 21.530256 7.430564 29.906051 6.931692 8.507077 17.539282 13.206974 28.566975 12.629333a50.464821 50.464821 0 0 1 48.443076 22.974359 49.624615 49.624615 0 0 1 0 53.300513c-10.345026 16.252718-29.197128 25.206154-48.443076 22.948103l-363.651283 2.205538z" fill="#59C746" p-id="5636"></path></svg>