<?xml version="1.0" standalone="no"?><!DOCTYPE svg PUBLIC "-//W3C//DTD SVG 1.1//EN" "http://www.w3.org/Graphics/SVG/1.1/DTD/svg11.dtd"><svg t="1729833245779" class="icon" viewBox="0 0 1050 1024" version="1.1" xmlns="http://www.w3.org/2000/svg" p-id="2575" xmlns:xlink="http://www.w3.org/1999/xlink" width="205.078125" height="200"><path d="M953.690339 993.8944h-273.63889a39.06849 39.06849 0 0 1-38.988758-38.988758 39.06849 39.06849 0 0 1 38.988758-38.988758h234.650132v-234.650132a39.028624 39.028624 0 0 1 78.017382 0v273.63889a39.06849 39.06849 0 0 1-39.028624 38.988758z m0-615.687502a39.06849 39.06849 0 0 1-38.988758-38.988758V133.988973a29.46083 29.46083 0 0 0-29.420965-29.420965h-205.229167a39.06849 39.06849 0 0 1 0-78.017381h273.63889a39.06849 39.06849 0 0 1 39.028624 39.028623v273.63889a39.06849 39.06849 0 0 1-39.028624 38.988758zM338.002837 104.568008H132.773669a29.46083 29.46083 0 0 0-29.420964 29.420965v205.229167a39.028624 39.028624 0 0 1-77.977516 0V65.57925a39.06849 39.06849 0 0 1 38.988758-39.028623h273.63889a39.028624 39.028624 0 0 1 0 78.017381z m492.581894 646.942294a32.171705 32.171705 0 0 1-31.892644 32.371034h-48.556552a32.171705 32.171705 0 0 1-31.812913-32.371034v-40.344195H300.369516v40.423926a32.091974 32.091974 0 0 1-31.852778 32.291303H219.920321a32.171705 32.171705 0 0 1-31.852779-32.371034v-125.577288c0-1.99329 0.239195-3.946715 0.597987-5.900139a72.037511 72.037511 0 0 1-0.597987-9.248867l9.009672-104.368679c-0.239195-18.338271 3.906849-36.477212 12.039473-52.901924l-24.358007-4.18591a18.019344 18.019344 0 0 1-17.780149-18.178807v-15.746993a17.979478 17.979478 0 0 1 17.780149-18.05921h64.104215a17.421357 17.421357 0 0 1 8.890075 2.551411l28.942575-88.741283c7.933295-42.018559 37.713052-74.549057 86.907456-74.549057h271.446271c42.815875 0 77.658589 24.198544 86.86759 74.549057l28.942575 88.462223a17.540954 17.540954 0 0 1 8.331953-2.272351h64.104216v-0.039866a17.939613 17.939613 0 0 1 17.780149 18.178807v15.746993a18.019344 18.019344 0 0 1-17.820015 18.099076l-23.76002 4.106178c8.212356 16.464578 12.3584 34.643385 12.119205 53.021522l8.969806 104.328813c0 3.069667-0.239195 6.1792-0.558121 9.248867a36.517078 36.517078 0 0 1 0.558121 5.900139v125.577288zM428.45835 615.528039v0.039866c-0.039866 7.973161 6.378529 14.471287 14.35169 14.511153h135.34441a14.431422 14.431422 0 0 0 14.192227-14.630751l0.159463 0.079732v-40.982048a14.551019 14.551019 0 0 0-14.391556-14.590885h-135.304544a14.511153 14.511153 0 0 0-14.35169 14.511153v41.06178z m-153.642815-12.876655v0.159463a48.516685 48.516685 0 0 0 48.197759 48.875478v-0.039866h0.079731a48.556551 48.556551 0 0 0 48.157894-48.995075c0-27.068882-21.527535-49.034941-48.237625-49.034941h-0.119598a48.516685 48.516685 0 0 0-48.078161 49.034941z m435.69339-223.886365l-21.567401-58.841929c-1.953424-11.042828-6.258931-13.355045-13.315179-22.603912H343.504318c-6.93665 8.969806-11.720547 11.042828-13.753703 22.603912l-0.358792 1.355438-21.208609 57.486491-7.933295 31.932511c1.833827 23.401228 29.500696 41.859096 52.4634 41.859095h313.185769c23.042436 0 50.709305-18.457868 52.4634-41.859095l-7.853563-31.932511z m-14.909812 174.851424h-0.159463a48.556551 48.556551 0 0 0-48.078162 49.034941v0.079731a48.636283 48.636283 0 0 0 48.317357 48.95521l-0.079732-0.039866h0.079732a48.636283 48.636283 0 0 0 48.157893-48.995075 48.636283 48.636283 0 0 0-48.237625-49.034941zM64.363947 642.277994c21.527535 0 38.988758 17.461223 38.988758 38.988758v205.229168c0 16.225383 13.195582 29.420965 29.420964 29.420964h205.229168a39.028624 39.028624 0 0 1 0 77.977516H64.363947a39.06849 39.06849 0 0 1-38.988758-38.988758v-273.63889c0-21.527535 17.501089-38.988758 38.988758-38.988758z" fill="#999999" p-id="2576"></path></svg>