<?xml version="1.0" standalone="no"?><!DOCTYPE svg PUBLIC "-//W3C//DTD SVG 1.1//EN" "http://www.w3.org/Graphics/SVG/1.1/DTD/svg11.dtd"><svg t="1729735002995" class="icon" viewBox="0 0 1024 1024" version="1.1" xmlns="http://www.w3.org/2000/svg" p-id="2524" xmlns:xlink="http://www.w3.org/1999/xlink" width="200" height="200"><path d="M113.777778 1024a113.777778 113.777778 0 0 1-113.777778-113.777778V113.777778a113.777778 113.777778 0 0 1 113.777778-113.777778h796.444444a113.777778 113.777778 0 0 1 113.777778 113.777778v796.444444a113.777778 113.777778 0 0 1-105.244444 113.493334L910.222222 1024H113.777778zM910.222222 56.888889H113.777778a56.888889 56.888889 0 0 0-56.490667 50.232889L56.888889 113.777778v796.444444a56.888889 56.888889 0 0 0 50.232889 56.490667L113.777778 967.111111V284.444444a56.888889 56.888889 0 0 1 56.888889-56.888888h113.777777a56.888889 56.888889 0 0 1 56.888889 56.888888v682.666667h56.888889V512a56.888889 56.888889 0 0 1 56.888889-56.888889h113.777778a56.888889 56.888889 0 0 1 56.888889 56.888889v455.111111h56.888889v-227.555555a56.888889 56.888889 0 0 1 56.888889-56.888889h113.777777a56.888889 56.888889 0 0 1 56.888889 56.888889v227.555555a56.888889 56.888889 0 0 0 56.490667-50.232889L967.111111 910.222222V113.777778a56.888889 56.888889 0 0 0-50.232889-56.490667L910.222222 56.888889zM284.444444 284.444444H170.666667v682.666667h113.777777V284.444444z m284.444445 227.555556H455.111111v455.111111h113.777778V512z m284.444444 227.555556h-113.777777v227.555555h113.777777v-227.555555z" fill="#005AFF" p-id="2525"></path></svg>