<?xml version="1.0" standalone="no"?><!DOCTYPE svg PUBLIC "-//W3C//DTD SVG 1.1//EN" "http://www.w3.org/Graphics/SVG/1.1/DTD/svg11.dtd"><svg t="1729576809500" class="icon" viewBox="0 0 1024 1024" version="1.1" xmlns="http://www.w3.org/2000/svg" p-id="6261" xmlns:xlink="http://www.w3.org/1999/xlink" width="200" height="200"><path d="M930.133333 597.333333h-29.866666c-8.533333 12.8-12.8 29.866667-21.333334 42.666667H938.666667c-4.266667-12.8-4.266667-29.866667-8.533334-42.666667zM85.333333 640h55.466667c-8.533333-12.8-17.066667-29.866667-21.333333-42.666667h-25.6c-4.266667 12.8-4.266667 29.866667-8.533334 42.666667z" fill="#323333" opacity=".05" p-id="6262"></path><path d="M170.666667 682.666667c-8.533333-12.8-21.333333-29.866667-29.866667-42.666667H85.333333v42.666667h85.333334zM878.933333 640c-8.533333 12.8-17.066667 29.866667-29.866666 42.666667h85.333333v-21.333334-21.333333h-55.466667z" fill="#323333" opacity=".1" p-id="6263"></path><path d="M98.133333 725.333333h110.933334c-12.8-12.8-25.6-25.6-38.4-42.666666H85.333333c4.266667 17.066667 4.266667 29.866667 12.8 42.666666zM938.666667 682.666667h-85.333334c-12.8 17.066667-21.333333 29.866667-38.4 42.666666h110.933334c8.533333-12.8 8.533333-25.6 12.8-42.666666z" fill="#323333" opacity=".18" p-id="6264"></path><path d="M930.133333 725.333333h-110.933333c-17.066667 17.066667-29.866667 29.866667-46.933333 42.666667h136.533333c4.266667-12.8 12.8-25.6 21.333333-42.666667zM119.466667 768H256c-17.066667-12.8-34.133333-25.6-46.933333-42.666667H93.866667c8.533333 17.066667 17.066667 29.866667 25.6 42.666667z" fill="#323333" opacity=".34" p-id="6265"></path><path d="M768 768c-21.333333 17.066667-46.933333 29.866667-72.533333 42.666667h162.133333c17.066667-12.8 34.133333-25.6 46.933333-42.666667H768zM256 768H119.466667c12.8 17.066667 25.6 29.866667 46.933333 42.666667h162.133333c-25.6-12.8-51.2-25.6-72.533333-42.666667z" fill="#323333" opacity=".5" p-id="6266"></path><path d="M238.933333 853.333333h546.133334c25.6-12.8 51.2-25.6 72.533333-42.666666h-162.133333c-55.466667 25.6-119.466667 42.666667-183.466667 42.666666s-128-17.066667-183.466667-42.666666H166.4c21.333333 17.066667 42.666667 29.866667 72.533333 42.666666z" fill="#323333" opacity=".58" p-id="6267"></path><path d="M324.266667 896h371.2c29.866667-17.066667 59.733333-29.866667 89.6-42.666667H238.933333c25.6 12.8 55.466667 29.866667 85.333334 42.666667z" fill="#323333" opacity=".65" p-id="6268"></path><path d="M405.333333 938.666667h213.333334c25.6-17.066667 51.2-29.866667 76.8-42.666667H324.266667c29.866667 12.8 55.466667 25.6 81.066666 42.666667z" fill="#323333" opacity=".7" p-id="6269"></path><path d="M465.066667 981.333333h93.866666c21.333333-17.066667 38.4-29.866667 59.733334-42.666666h-213.333334c21.333333 12.8 42.666667 25.6 59.733334 42.666666z" fill="#323333" opacity=".8" p-id="6270"></path><path d="M465.066667 981.333333c17.066667 12.8 34.133333 25.6 46.933333 42.666667 12.8-17.066667 29.866667-29.866667 46.933333-42.666667h-93.866666z" fill="#323333" p-id="6271"></path><path d="M512 426.666667m-426.666667 0a426.666667 426.666667 0 1 0 853.333334 0 426.666667 426.666667 0 1 0-853.333334 0Z" fill="#FFFFFF" p-id="6272"></path><path d="M512 0C277.333333 0 85.333333 192 85.333333 426.666667s192 426.666667 426.666667 426.666666 426.666667-192 426.666667-426.666666S746.666667 0 512 0z m0 772.266667c-192 0-345.6-153.6-345.6-345.6S320 81.066667 512 81.066667s345.6 153.6 345.6 345.6-153.6 345.6-345.6 345.6z m0 251.733333l128-128H384l128 128z" fill="#9ACD32" p-id="6273"></path><path d="M661.333333 477.866667c0-76.8-68.266667-140.8-149.333333-140.8-85.333333 0-149.333333 64-149.333333 140.8 0 55.466667 29.866667 93.866667 76.8 119.466666V657.066667c0 8.533333 8.533333 17.066667 17.066666 17.066666h119.466667c4.266667 0 8.533333 0 12.8-4.266666 4.266667-4.266667 4.266667-8.533333 4.266667-12.8V597.333333c42.666667-25.6 68.266667-68.266667 68.266666-119.466666z m-209.066666-25.6l25.6 46.933333 38.4-64 34.133333 64 25.6-46.933333 21.333333 8.533333-46.933333 81.066667-38.4-64-38.4 64-42.666667-81.066667 21.333334-8.533333zM776.533333 379.733333l-98.133333 38.4c-4.266667 0-4.266667 0-8.533333-4.266666l-8.533334-21.333334c0-4.266667 0-4.266667 4.266667-8.533333l98.133333-38.4c4.266667 0 4.266667 0 8.533334 4.266667l8.533333 21.333333c0 4.266667-4.266667 8.533333-4.266667 8.533333z m-153.6-42.666666c0 4.266667-4.266667 4.266667-8.533333 0l-17.066667-12.8c-4.266667 0-4.266667-4.266667 0-8.533334l59.733334-85.333333c0-4.266667 4.266667-4.266667 8.533333 0l17.066667 12.8c4.266667 0 4.266667 4.266667 0 8.533333l-59.733334 85.333334zM512 307.2c-8.533333 0-17.066667-8.533333-17.066667-17.066667V200.533333c0-8.533333 8.533333-17.066667 17.066667-17.066666s17.066667 8.533333 17.066667 17.066666v85.333334c0 12.8-4.266667 21.333333-17.066667 21.333333z m-102.4 29.866667h-8.533333L341.333333 251.733333v-4.266666l17.066667-12.8h8.533333l59.733334 85.333333v8.533333l-17.066667 8.533334zM362.666667 396.8l-8.533334 17.066667c0 4.266667-4.266667 4.266667-8.533333 4.266666l-98.133333-38.4c-4.266667 0-4.266667-4.266667-4.266667-8.533333l8.533333-21.333333c0-4.266667 4.266667-4.266667 8.533334-4.266667l98.133333 38.4c0 4.266667 4.266667 8.533333 4.266667 12.8z" fill="#9ACD32" p-id="6274"></path></svg>