<?xml version="1.0" standalone="no"?><!DOCTYPE svg PUBLIC "-//W3C//DTD SVG 1.1//EN" "http://www.w3.org/Graphics/SVG/1.1/DTD/svg11.dtd"><svg t="1729747614133" class="icon" viewBox="0 0 1024 1024" version="1.1" xmlns="http://www.w3.org/2000/svg" p-id="4630" xmlns:xlink="http://www.w3.org/1999/xlink" width="200" height="200"><path d="M820.503125 399.5C867.584375 399.5 905.75 361.728125 905.75 315.125V202.625c0-46.603125-38.165625-84.375-85.246875-84.375H203.496875C156.415625 118.25 118.25 156.021875 118.25 202.625v112.5c0 46.603125 38.165625 84.375 85.246875 84.375H343.25v112.5a28.125 28.125 0 0 0 28.125 28.125h253.125v84.375H203.496875C156.415625 624.5 118.25 662.271875 118.25 708.875v112.5c0 46.603125 38.165625 84.375 85.246875 84.375h617.00625C867.584375 905.75 905.75 867.978125 905.75 821.375v-112.5c0-46.603125-38.165625-84.375-85.246875-84.375H680.75v-112.5a28.125 28.125 0 0 0-28.125-28.125h-253.125v-84.375h421.003125z m0 281.25c15.69375 0 28.40625 12.6 28.40625 28.125v112.5c0 15.525-12.7125 28.125-28.40625 28.125H203.496875c-15.69375 0-28.40625-12.6-28.40625-28.125v-112.5c0-15.525 12.7125-28.125 28.40625-28.125h617.00625zM175.090625 315.125V202.625c0-15.525 12.7125-28.125 28.40625-28.125h617.00625c15.69375 0 28.40625 12.6 28.40625 28.125v112.5c0 15.525-12.7125 28.125-28.40625 28.125H203.496875c-15.69375 0-28.40625-12.6-28.40625-28.125z" fill="#0099FC" p-id="4631"></path><path d="M343.25 793.25h337.5a28.125 28.125 0 0 0 0-56.25H343.25a28.125 28.125 0 0 0 0 56.25zM708.875 258.875a28.125 28.125 0 0 0-28.125-28.125H343.25a28.125 28.125 0 0 0 0 56.25h337.5a28.125 28.125 0 0 0 28.125-28.125z" fill="#0099FC" p-id="4632"></path></svg>