<?xml version="1.0" standalone="no"?><!DOCTYPE svg PUBLIC "-//W3C//DTD SVG 1.1//EN" "http://www.w3.org/Graphics/SVG/1.1/DTD/svg11.dtd"><svg t="1729691669992" class="icon" viewBox="0 0 1024 1024" version="1.1" xmlns="http://www.w3.org/2000/svg" p-id="4355" xmlns:xlink="http://www.w3.org/1999/xlink" width="200" height="200"><path d="M0 512C0 229.231711 229.231711 0 512 0s512 229.231711 512 512c0 110.778743-60.719012 247.565215-120.477316 331.295463l60.238658 180.704537-227.870708-51.466482c-65.190877 32.446758-141.967431 51.466482-223.192977 51.466482C229.231711 1024 0 794.768289 0 512z m46.548574 0c0 257.057922 208.393504 465.485737 466.080461 465.485737 73.837246 0 150.739607-17.715907 217.8519-53.753881l162.210914 36.095159-41.013068-124.079969c64.436035-81.911765 125.806956-223.021422 125.806956-323.747046 0-257.057922-208.393504-465.485737-465.485737-465.485737s-465.485737 208.427815-465.485737 465.485737z m485.065874 162.07367v-14.12469c0-23.388657 5.009404-44.604284 15.073961-63.109344 8.817924-17.81884 22.142024-34.665535 38.885786-48.927469 37.673465-33.23591 60.42165-54.600219 66.631939-62.251569 18.024706-23.331472 27.357294-53.467956 27.357294-90.020595 0-44.833024-14.387741-79.567181-43.231844-105.094557-28.866978-26.305091-66.872116-39.206022-115.696652-39.206022-56.338642 0-99.021511 15.817365-129.787031 47.669399-30.879889 31.25731-46.41133 73.940179-46.411329 129.86709h67.695579q0-54.897581 22.187772-84.782451c16.4464-24.109188 43.574955-35.740613 80.550763-35.740613 29.598946 0 53.433645 8.303259 69.868609 24.932651 15.622937 16.617955 23.8347 39.068778 23.834699 68.15306 0 21.615922-8.211763 41.562043-23.011236 60.673263l-13.976009 15.794492c-50.963254 45.747984-82.19769 79.795921-92.879844 103.070208-10.945205 20.586593-15.943172 45.61074-16.41209 74.466281v18.630866h69.33107z m-25.767552 63.509639c-12.443452 0-22.130587 3.636965-29.942055 11.517055a36.747068 36.747068 0 0 0-11.436996 26.796882v2.184466a39.36614 39.36614 0 0 0 11.883038 29.187214c7.811468 7.902964 17.761655 11.928787 29.50745 11.928787a42.60281 42.60281 0 0 0 29.816249-11.436996 40.486966 40.486966 0 0 0 12.374829-29.27871v-1.338129-1.269506a37.124489 37.124489 0 0 0-11.860164-27.128555c-7.445484-7.525543-17.155494-11.128197-30.353788-11.11676z" fill="#444444" p-id="4356"></path></svg>