<?xml version="1.0" standalone="no"?><!DOCTYPE svg PUBLIC "-//W3C//DTD SVG 1.1//EN" "http://www.w3.org/Graphics/SVG/1.1/DTD/svg11.dtd"><svg t="1729320272245" class="icon" viewBox="0 0 1024 1024" version="1.1" xmlns="http://www.w3.org/2000/svg" p-id="4441" xmlns:xlink="http://www.w3.org/1999/xlink" width="200" height="200"><path d="M365.568 1024h292.864V731.136H365.568V1024z m73.728-219.136h146.432v146.432H439.296V804.864z m438.272-73.728V512H548.864V292.864h146.432V0H328.704v292.864h146.432V512H146.432v219.136H0V1024h292.864V731.136h-72.704V584.704h584.704v146.432h-72.704V1024H1024V731.136H877.568zM219.136 951.296H72.704V804.864h146.432v146.432z m183.296-732.16V72.704h219.136v146.432H402.432z m548.864 732.16H804.864V804.864h146.432v146.432z m0 0" fill="#828282" p-id="4442"></path></svg>