<?xml version="1.0" standalone="no"?><!DOCTYPE svg PUBLIC "-//W3C//DTD SVG 1.1//EN" "http://www.w3.org/Graphics/SVG/1.1/DTD/svg11.dtd"><svg t="1729700648535" class="icon" viewBox="0 0 1024 1024" version="1.1" xmlns="http://www.w3.org/2000/svg" p-id="3298" xmlns:xlink="http://www.w3.org/1999/xlink" width="200" height="200"><path d="M419.28704 990.35136a92.71296 33.64864 0 1 0 185.42592 0 92.71296 33.64864 0 1 0-185.42592 0Z" fill="#9FA0A0" p-id="3299"></path><path d="M831.488 471.8592c0-176.4352-143.01184-319.46752-319.488-319.46752-176.45568 0-319.46752 143.03232-319.46752 319.46752 0 118.784 69.87776 214.46656 161.19808 277.27872 44.48256 30.57664 107.97056 98.816 155.11552 196.01408 0 0 41.39008-110.7968 169.41056-200.92928 88.02304-61.87008 153.23136-156.89728 153.23136-272.36352z" p-id="3300"></path><path d="M512 152.39168c176.4352 0 319.488 143.01184 319.488 319.46752 0 115.46624-65.2288 210.49344-153.16992 272.42496-128.04096 90.07104-169.41056 200.92928-169.41056 200.92928-47.14496-97.23904-110.63296-165.45792-155.11552-196.03456-91.32032-62.79168-161.19808-158.47424-161.19808-277.27872C192.53248 295.424 335.5648 152.39168 512 152.39168m0-36.37248c-196.21888 0-355.84 159.62112-355.84 355.84 0 119.64416 62.85312 228.74112 176.96768 307.26144 37.90848 26.03008 98.0992 89.31328 142.99136 181.9648 6.08256 12.53376 18.82112 20.48 32.72704 20.48 0.57344 0 1.14688 0 1.72032-0.04096a36.31104 36.31104 0 0 0 32.3584-23.59296c0.36864-0.88064 39.97696-102.03136 156.32384-183.88992 107.13088-75.38688 168.59136-185.5488 168.59136-302.14144 0-196.25984-159.6416-355.88096-355.84-355.88096z" fill="#FFFFFF" p-id="3301"></path><path d="M559.24736 633.36448h-94.45376c-5.09952 0-9.48224 4.15744-9.48224 9.48224s4.17792 9.48224 9.48224 9.48224h94.45376c5.07904 0 9.48224-4.15744 9.48224-9.48224s-4.17792-9.48224-9.48224-9.48224zM545.11616 661.6064h-66.21184a9.5232 9.5232 0 0 0 0 18.98496h66.21184c5.07904 0 9.48224-4.17792 9.48224-9.50272s-4.4032-9.48224-9.48224-9.48224z" fill="#FFFFFF" opacity=".5" p-id="3302"></path><path d="M634.96192 452.07552c0-67.60448-55.35744-122.92096-122.94144-122.92096-67.60448 0-122.92096 55.33696-122.92096 122.92096 0 42.5984 21.2992 81.24416 57.18016 103.936 5.55008 3.72736 9.03168 9.5232 9.03168 15.99488v49.99168h47.22688v-81.7152l-44.91264-44.46208c-3.23584-3.70688-3.23584-9.48224 0-12.73856a9.56416 9.56416 0 0 1 12.73856 0L512 524.30848l41.6768-41.20576a9.54368 9.54368 0 0 1 12.71808 0c3.23584 3.70688 3.23584 9.48224 0 12.73856l-44.89216 44.46208v81.7152h47.22688V572.0064c0-6.71744 3.23584-12.75904 9.03168-15.99488a122.34752 122.34752 0 0 0 57.20064-103.936z m-162.54976-74.07616a112.64 112.64 0 0 0-44.91264 61.35808 11.38688 11.38688 0 0 1-11.10016 8.33536c-1.16736 0-2.08896-0.22528-3.25632-0.45056a11.40736 11.40736 0 0 1-7.86432-14.35648 135.33184 135.33184 0 0 1 54.1696-74.07616 11.69408 11.69408 0 0 1 15.9744 3.01056 11.4688 11.4688 0 0 1-3.01056 16.1792z" fill="#FFFFFF" p-id="3303"></path></svg>