<?xml version="1.0" standalone="no"?><!DOCTYPE svg PUBLIC "-//W3C//DTD SVG 1.1//EN" "http://www.w3.org/Graphics/SVG/1.1/DTD/svg11.dtd"><svg t="1729835170337" class="icon" viewBox="0 0 1024 1024" version="1.1" xmlns="http://www.w3.org/2000/svg" p-id="9748" xmlns:xlink="http://www.w3.org/1999/xlink" width="200" height="200"><path d="M95.616 979.328a50.944 50.944 0 0 1-50.88-50.88V95.616c0-28.032 22.848-50.88 50.88-50.88h832.768c28.032 0 50.88 22.784 50.88 50.88v832.768a50.944 50.944 0 0 1-50.88 50.88l-832.768 0.064z" fill="#FFFFFF" p-id="9749"></path><path d="M928.384 57.472c21.056 0 38.144 17.152 38.144 38.144v832.768a38.208 38.208 0 0 1-38.144 38.144H95.616a38.208 38.208 0 0 1-38.144-38.144V95.616c0-21.056 17.152-38.144 38.144-38.144h832.768m0-25.472H95.616a63.616 63.616 0 0 0-63.616 63.616v832.768c0 35.136 28.48 63.616 63.616 63.616h832.768a63.616 63.616 0 0 0 63.616-63.616V95.616A63.616 63.616 0 0 0 928.384 32z" fill="#AFAFAF" p-id="9750"></path><path d="M95.616 937.152a8.832 8.832 0 0 1-8.768-8.768V95.616c0-4.8 3.968-8.768 8.768-8.768h832.832c4.8 0 8.768 3.968 8.768 8.768v832.768a8.768 8.768 0 0 1-8.768 8.768H95.616z" fill="#FF8300" p-id="9751"></path><path d="M205.696 242.624h221.248v569.984H205.696zM519.488 336.384h287.488v124.992H519.488z" fill="#FFFFFF" p-id="9752"></path><path d="M581.952 448.896h160v142.528h-160z" fill="#FFFFFF" p-id="9753"></path><path d="M646.976 578.88h32.512v197.504h-32.512zM646.976 211.392h32.512v100.032h-32.512z" fill="#FFFFFF" p-id="9754"></path><path d="M568.128 312.768l-57.472-57.536 22.656-22.656 57.536 57.536z" fill="#FFFFFF" p-id="9755"></path><path d="M760.832 312.704l-22.72-22.656 57.6-57.536 22.592 22.656z" fill="#FFFFFF" p-id="9756"></path><path d="M236.992 306.368h32.512v67.52h-32.512zM236.992 401.344h32.512v32.512h-32.512zM236.992 463.872h32.512v32.512h-32.512zM236.992 526.4h32.512v65.024h-32.512zM236.992 622.656h32.512v124.992h-32.512zM301.952 306.368h92.48v65.024H301.952zM301.952 428.864h92.48v32.512H301.952zM301.952 491.392h92.48v32.512H301.952zM301.952 555.136h92.48v32.512H301.952zM301.952 617.6h92.48v32.512H301.952zM301.952 681.344h92.48v32.512H301.952zM301.952 743.872h92.48v32.512H301.952z" fill="#F35D00" p-id="9757"></path></svg>