<?xml version="1.0" standalone="no"?><!DOCTYPE svg PUBLIC "-//W3C//DTD SVG 1.1//EN" "http://www.w3.org/Graphics/SVG/1.1/DTD/svg11.dtd"><svg t="1729576788107" class="icon" viewBox="0 0 1024 1024" version="1.1" xmlns="http://www.w3.org/2000/svg" p-id="5231" xmlns:xlink="http://www.w3.org/1999/xlink" width="200" height="200"><path d="M791.0432 124.416c-157.5424-165.888-412.928-165.888-570.4704 0-157.568 165.9136-157.568 434.944 0 600.832L505.808 1024l285.2096-298.752c157.568-165.888 157.568-434.8928 0-600.832z" fill="#FC3452" p-id="5232"></path><path d="M481.6928 527.744h-56.8832c-41.2928 0-74.6752-33.92-74.6752-75.8784v-5.3248h-10.88v-34.944a63.488 63.488 0 0 1-35.1488-57.088c0-35.072 27.9552-63.5648 62.5152-63.5648s62.5152 28.416 62.5152 63.5392c0 25.088-14.3104 46.7712-35.1488 57.1136l-0.1024 34.944h-11.8528c2.8672 28.6976 26.6752 51.0976 55.7056 51.0976h43.8528V395.52h-9.1904v-39.7568a72.448 72.448 0 0 1-39.8848-64.9472c0-39.8592 31.8976-72.192 71.1168-72.192 39.1936 0 71.0144 32.3328 70.912 72.192a72.192 72.192 0 0 1-39.808 64.8448v39.7568l-0.1024 0.1024h-9.1904v101.9904h48.2048c28.928 0 52.864-22.3744 55.7056-51.0976h-11.8528v-34.944a63.488 63.488 0 0 1-35.1488-57.088c0-22.6048 11.9552-43.6992 31.3088-55.04a61.696 61.696 0 0 1 62.5152 0 64 64 0 0 1 31.3088 55.1168c0 25.088-14.336 46.7712-35.1488 57.1136l-0.1024 34.944h-15.104v5.3248c0 41.856-33.408 75.8784-74.6752 75.8784h-57.0112v106.9312h5.0432c10.3168 0 18.7648 8.576 18.7648 19.3024l8.704 122.5728h25.4208v34.1248h-155.136v-34.1248h25.3696l8.832-122.5728c0-10.624 8.3456-19.3024 18.7648-19.3024h0.512v-106.9312z" fill="#FFFFFF" p-id="5233"></path></svg>