<?xml version="1.0" standalone="no"?><!DOCTYPE svg PUBLIC "-//W3C//DTD SVG 1.1//EN" "http://www.w3.org/Graphics/SVG/1.1/DTD/svg11.dtd"><svg t="1729748523716" class="icon" viewBox="0 0 1024 1024" version="1.1" xmlns="http://www.w3.org/2000/svg" p-id="8623" xmlns:xlink="http://www.w3.org/1999/xlink" width="200" height="200"><path d="M478.208 795.648L359.424 615.424H243.712l-40.96-40.96v-430.08l40.96-40.96h537.6l40.96 40.96v430.08l-40.96 40.96H664.576L545.792 795.648h-67.584zM284.672 533.504h98.304l33.792 18.432L512 698.368l95.232-146.432 33.792-18.432h98.304v-348.16H284.672v348.16z" fill="#437DFF" p-id="8624"></path><path d="M598.016 470.016H425.984l-30.72-30.72V268.288l30.72-30.72h172.032l30.72 30.72V440.32l-30.72 29.696z m-141.312-61.44h110.592V299.008H456.704v109.568z" fill="#63F7DE" p-id="8625"></path><path d="M865.28 920.576h-706.56l-31.744-66.56L256 692.224l31.744-15.36h61.44v81.92H307.2l-63.488 79.872h536.576L716.8 758.784h-41.984v-81.92h61.44l31.744 15.36 129.024 161.792z" fill="#437DFF" p-id="8626"></path></svg>