<?xml version="1.0" standalone="no"?><!DOCTYPE svg PUBLIC "-//W3C//DTD SVG 1.1//EN" "http://www.w3.org/Graphics/SVG/1.1/DTD/svg11.dtd"><svg t="1729576775512" class="icon" viewBox="0 0 1024 1024" version="1.1" xmlns="http://www.w3.org/2000/svg" p-id="3951" xmlns:xlink="http://www.w3.org/1999/xlink" width="200" height="200"><path d="M505.8048 25.6c96.5376 0 193.024 38.912 266.6752 116.48 74.1376 78.08 111.104 180.4544 111.104 282.7776 0 102.3232-36.9664 204.6976-111.0784 282.7264L505.8048 986.9312 239.104 707.6352C164.9664 629.5552 128 527.1552 128 424.8576c0-102.3488 36.9664-204.7232 111.1296-282.8032C312.7552 64.512 409.2416 25.6 505.8048 25.6z" fill="#307CEA" p-id="3952"></path><path d="M481.6896 527.744h-56.8832c-41.2928 0-74.6752-33.92-74.6752-75.8784v-5.3248h-10.88v-34.944a63.488 63.488 0 0 1-35.1488-57.088c0-35.072 27.9552-63.5648 62.5152-63.5648s62.5152 28.416 62.5152 63.5392c0 25.088-14.3104 46.7712-35.1488 57.1136l-0.1024 34.944h-11.8528c2.8672 28.6976 26.6752 51.0976 55.7056 51.0976h43.8528V395.52h-9.1904v-39.7568a72.448 72.448 0 0 1-39.8848-64.9472c0-39.8592 31.8976-72.192 71.1168-72.192 39.1936 0 71.0144 32.3328 70.912 72.192a72.192 72.192 0 0 1-39.808 64.8448v39.7568l-0.1024 0.1024h-9.1904v101.9904h48.2048c28.928 0 52.864-22.3744 55.7056-51.0976h-11.8528v-34.944a63.488 63.488 0 0 1-35.1488-57.088c0-22.6048 11.9552-43.6992 31.3088-55.04a61.696 61.696 0 0 1 62.5152 0 64 64 0 0 1 31.3088 55.1168c0 25.088-14.336 46.7712-35.1488 57.1136l-0.1024 34.944h-15.104v5.3248c0 41.856-33.408 75.8784-74.6752 75.8784h-57.0112v106.9312h5.0432c10.3168 0 18.7648 8.576 18.7648 19.3024l8.704 122.5728h25.4208v34.1248h-155.136v-34.1248h25.3696l8.832-122.5728c0-10.624 8.3456-19.3024 18.7648-19.3024h0.512v-106.9312z" fill="#FFFFFF" p-id="3953"></path></svg>