<?xml version="1.0" standalone="no"?><!DOCTYPE svg PUBLIC "-//W3C//DTD SVG 1.1//EN" "http://www.w3.org/Graphics/SVG/1.1/DTD/svg11.dtd"><svg t="1729576695298" class="icon" viewBox="0 0 1024 1024" version="1.1" xmlns="http://www.w3.org/2000/svg" p-id="2407" xmlns:xlink="http://www.w3.org/1999/xlink" width="200" height="200"><path d="M464.83412 703.376531h311.809928v228.493129H464.83412z" fill="#FFFFFF" p-id="2408"></path><path d="M617.10796 1024c-122.909095 0-223.468586-100.559491-223.468586-223.468586S494.198865 577.0491 617.10796 577.0491s223.468586 100.559491 223.468586 223.468586-100.559491 223.482314-223.468586 223.482314z m-27.937006-174.348878l-67.035084-66.9939a16.597464 16.597464 0 1 0-23.461593 23.461593l78.251071 78.251071a16.213073 16.213073 0 0 0 23.461593 0l134.083898-134.083897a16.597464 16.597464 0 1 0-23.461594-23.461593z m0 0" fill="#38B367" p-id="2409"></path><path d="M645.456813 22.070536c-3.679173-16.652377-15.101084-21.731833-15.101084-21.731832-18.299768-3.143771-67.268465 16.47391-81.751777 22.610441l-7.701553 3.047673c-78.978669 28.568505-148.471112 51.769261-176.051183 61.777162l-1.070804 0.356934-0.151011 0.08237-0.247108 0.096098a30.078614 30.078614 0 0 0-10.762955 6.260085l0.411848 0.219653c-57.658684 38.439123-111.102793 119.24365-123.966171 195.051091 0 0-42.5576 108.988641-29.103907 209.067643V795.328404c-3.253597 8.964553-12.822193 20.72967-14.950073 32.426146l-1.592478 188.077136h90.345667c-0.521674-62.600857-1.057076-125.352725-0.919794-187.843756-2.745652-11.723932-12.190693-22.816365-14.936344-32.426145v-294.882985c0-134.53693-27.689897-209.369665 27.607527-302.419799 20.866952-34.04608 48.886327-77.070441 93.050133-86.680222a30.668929 30.668929 0 0 1 4.118478-0.645228l1.468923 0.796239c37.066297 39.386373 75.50542 52.030098 127.768899 52.030098 73.267714 0 153.852589-51.714348 133.534767-141.689352z" fill="#FFC200" p-id="2410"></path></svg>