<?xml version="1.0" standalone="no"?><!DOCTYPE svg PUBLIC "-//W3C//DTD SVG 1.1//EN" "http://www.w3.org/Graphics/SVG/1.1/DTD/svg11.dtd"><svg t="1729834061535" class="icon" viewBox="0 0 1024 1024" version="1.1" xmlns="http://www.w3.org/2000/svg" p-id="4593" xmlns:xlink="http://www.w3.org/1999/xlink" width="200" height="200"><path d="M975.5648 419.9424h-51.2a39.5776 39.5776 0 0 0-38.8096 39.7312c0 21.7088 16.9984 39.2192 38.8096 39.7312h51.2a39.5776 39.5776 0 0 0 38.8096-39.7312c0-21.8112-16.9984-39.2192-38.8096-39.7312zM821.1456 558.2848c51.4048-97.9968 17.8176-223.744-76.4928-282.624-96.256-60.2112-225.9968-33.28-290.6112 59.6992-152.1664-13.9264-292.1472 81.5104-334.336 228.4544A215.01952 215.01952 0 0 0 10.6496 803.7376a214.6304 214.6304 0 0 0 209.408 165.888h512.3072c103.424-0.1024 192.4096-73.9328 211.456-175.616 18.2272-96.9728-33.28-195.1744-122.6752-235.7248z m-653.7216 90.5216l34.7136-17.5104 10.24-37.5808c25.4976-93.4912 107.6224-158.72 204.4928-162.304 2.7648-0.1024 5.5296-0.2048 8.2944-0.2048 93.0816 0 176.5376 59.0848 207.5648 147.0464l20.5824 58.0608h78.9504c64.9216 0 117.76 52.9408 117.76 117.8624 0 65.024-52.8384 117.8624-117.76 117.8624H220.0576c-54.9888 0-102.1952-37.376-114.7904-90.8288s12.9024-107.8272 62.1568-132.4032z m552.96-113.8688c-29.5936-74.6496-87.2448-136.192-159.9488-170.496a117.43232 117.43232 0 0 1 151.2448 11.776c43.9296 43.1104 47.2064 111.616 8.704 158.72z" p-id="4594"></path><path d="M393.5232 279.3472a40.0384 40.0384 0 0 0 28.0576 11.6736c10.6496 0 20.5824-4.096 28.0576-11.6736a39.7312 39.7312 0 0 0 0-56.1152l-36.2496-36.352a39.5264 39.5264 0 0 0-55.3984 0.7168 39.43424 39.43424 0 0 0-0.7168 55.3984l36.2496 36.352zM827.392 290.4064a39.69024 39.69024 0 0 0 38.7072-11.1616l36.1472-36.352a39.82336 39.82336 0 0 0 11.1616-38.7072 39.81312 39.81312 0 0 0-28.4672-28.5696c-13.9264-3.584-28.7744 0.6144-38.7072 11.0592l-36.2496 36.352a39.82336 39.82336 0 0 0-11.1616 38.7072 39.90528 39.90528 0 0 0 28.5696 28.672zM609.6896 199.9872a39.63904 39.63904 0 0 0 40.3456 0 39.58784 39.58784 0 0 0 19.5584-35.1232v-51.2c0.3072-14.4384-7.168-27.8528-19.5584-35.2256-12.3904-7.2704-27.8528-7.2704-40.2432 0s-19.968 20.7872-19.5584 35.1232v51.2c-0.4096 14.4384 7.0656 27.9552 19.456 35.2256z" p-id="4595"></path></svg>