<svg data-v-0dd9719b="" version="1.0" xmlns="http://www.w3.org/2000/svg" xmlns:xlink="http://www.w3.org/1999/xlink" width="100%" height="100%" viewBox="0 0 340.000000 250.000000" preserveAspectRatio="xMidYMid meet" color-interpolation-filters="sRGB" style="margin: auto;">   <g data-v-0dd9719b="" fill="#363383" class="icon-text-wrapper icon-svg-group iconsvg" transform="translate(97.4762487411499,70.07131958007812)"><g class="iconsvg-imagesvg" transform="translate(42.525001525878906,0)"><g><rect fill="#363383" fill-opacity="0" stroke-width="2" x="0" y="0" width="60" height="66.16455123893122" class="image-rect"></rect> <svg x="0" y="0" width="60" height="66.16455123893122" filtersec="colorsb3922736895" class="image-svg-svg primary" style="overflow: visible;"><svg xmlns="http://www.w3.org/2000/svg" viewBox="0 -0.0037206772249192 12.910966873168945 14.237441062927246"><g><g fill-rule="evenodd"><path d="M5.33.31l-4.2 2.42L4 4.37l2.5-1.44L10.09 5v4.21l-3.63 2.1L4 9.87 1.13 11.5l4.19 2.42a2.21 2.21 0 0 0 2.27 0l4.19-2.42a2.22 2.22 0 0 0 1.13-2V4.7a2.22 2.22 0 0 0-1.13-2L7.59.31a2.21 2.21 0 0 0-2.27 0zM0 4.7l2.83 1.63V7.9L0 9.54z" fill="#363383"></path><path fill="#ff3938" d="M5.31 7.12L0 10.19V4.05l5.31 3.07z"></path></g></g></svg></svg> <!----></g></g> <g transform="translate(0,73.16455078125)"><g data-gra="path-name" fill-rule="" class="tp-name iconsvg-namesvg" transform="translate(0,0)"><g transform="scale(1)"><g><path d="M4.19 0L0.79 0 0.79-2.08 0.79-3.04 0.79-4.67 0.79-5.63 0.79-7.52 0.79-7.76 17.76-7.76 21.23-7.76 21.23-5.63 21.23-4.67 21.23-3.14 21.23-3.04Q21.21-2.39 21.01-1.84 20.8-1.29 20.44-0.89 20.09-0.48 19.61-0.24 19.13 0 18.6 0L18.6 0 4.19 0ZM4.19-5.63L4.19-4.67 17.76-4.67 17.76-5.63 4.19-5.63ZM4.19-3.04L4.19-2.08 17-2.08Q17.33-2.08 17.55-2.35 17.76-2.61 17.76-2.99L17.76-2.99 17.76-3.04 4.19-3.04ZM12.02-17.02L12.02-17.24 21.52-17.24 21.52-17.02 21.52-14.87 21.52-10.99Q21.52-10.44 21.32-9.96 21.11-9.48 20.76-9.12 20.4-8.76 19.92-8.56 19.44-8.35 18.89-8.35L18.89-8.35 12.02-8.35 12.02-9.29 12.02-10.72 12.02-14.87 12.02-17.02ZM18.19-11.47L18.19-14.87 15.35-14.87 15.35-10.72 17.45-10.72Q17.76-10.72 17.98-10.94 18.19-11.16 18.19-11.47L18.19-11.47ZM4.4-8.35L0.55-8.35 3.38-10.8 0.5-10.8 0.5-13.17 4.62-13.17 4.62-14.03 3.81-14.03 2.03-14.03 0.5-14.03 1.63-17.24 4.93-17.24 4.64-16.4 10.92-16.4 10.92-14.03 7.95-14.03 7.95-13.17 11.06-13.17 11.06-10.8 9.29-10.8 11.37-8.35 8.04-8.35 6.51-10.17 4.4-8.35ZM23.41 0.02L26.19-8.4 22.53-8.4 22.53-10.41 31.36-10.41 31.36-17.26 34.69-17.26 34.69-10.41 43.55-10.41 43.55-8.4 39.02-8.4 39.02-3.09Q39.02-2.78 39.24-2.56 39.45-2.35 39.76-2.35L39.76-2.35 43.55-2.35 42.49 0.02 38.33 0.02Q37.78 0.02 37.3-0.18 36.82-0.38 36.46-0.74 36.1-1.1 35.9-1.58 35.69-2.06 35.69-2.61L35.69-2.61 35.69-8.4 30.02-8.4 27.27 0.02 23.41 0.02ZM24.85-11.56L23.1-16.16 26.98-16.16 28.73-11.56 24.85-11.56ZM42.97-16.16L41.22-11.56 37.32-11.56 39.09-16.16 42.97-16.16ZM55.25-15.97L58.63-15.97 58.63 0 55.25 0 55.25-6.61 49.08-6.61 49.08 0 45.68 0 45.68-15.97 49.08-15.97 49.08-9.46 55.25-9.46 55.25-15.97ZM65.93-7.09L69.86-7.09Q69.86-8.31 69.36-8.74 68.87-9.17 67.41-9.17L67.41-9.17 62-9.17 62-11.66 67.41-11.66Q68.87-11.66 69.42-11.6 69.97-11.54 70.55-11.37L70.55-11.37Q73.21-10.37 73.06-6.56L73.06-6.56 73.06 0 66.31 0Q64.49 0 63.8-0.11 63.1-0.22 62.58-0.55L62.58-0.55Q61.17-1.51 61.17-3.45L61.17-3.45Q61.17-4.62 61.73-5.54 62.29-6.46 63.22-6.8L63.22-6.8Q64.04-7.09 65.93-7.09L65.93-7.09ZM69.86-2.49L69.86-4.6 66.17-4.6 65.62-4.6Q65.07-4.6 64.74-4.31 64.42-4.02 64.42-3.52L64.42-3.52Q64.42-2.97 64.82-2.73 65.21-2.49 66.17-2.49L66.17-2.49 69.86-2.49ZM76.06 0L76.06-11.66 80.8-11.66Q82.26-11.66 83.06-11.45 83.86-11.25 84.39-10.77L84.39-10.77Q84.91-10.29 85.13-9.58 85.34-8.86 85.34-7.52L85.34-7.52 85.34-6.39 82.26-6.39 82.26-7.01Q82.26-8.26 81.82-8.71 81.39-9.17 80.17-9.17L80.17-9.17 79.26-9.17 79.26 0 76.06 0ZM87.26 0L87.26-11.66 99.04-11.66Q100.64-11.66 101.48-11.42 102.32-11.18 102.89-10.58L102.89-10.58Q103.94-9.43 103.94-7.42L103.94-7.42 103.94 0 100.74 0 100.74-6.92Q100.74-7.76 100.66-8.09 100.59-8.43 100.33-8.69L100.33-8.69Q99.83-9.17 98.82-9.17L98.82-9.17 97.12-9.17 97.12 0 93.91 0 93.91-9.17 90.47-9.17 90.47 0 87.26 0ZM112.32-11.83L112.32-11.83Q115.56-11.83 117.09-9.96L117.09-9.96Q118.5-8.26 118.5-5.67L118.5-5.67Q118.5-2.94 116.73-1.32L116.73-1.32Q115.1 0.17 112.28 0.17L112.28 0.17Q109.35 0.17 107.7-1.51L107.7-1.51Q106.17-3.02 106.17-5.91L106.17-5.91Q106.17-8.35 107.63-9.98L107.63-9.98Q109.26-11.8 112.32-11.83ZM112.35-9.38L112.35-9.38Q109.45-9.38 109.45-5.79L109.45-5.79Q109.45-4.33 109.93-3.57L109.93-3.57Q110.72-2.27 112.37-2.27L112.37-2.27Q115.22-2.27 115.22-5.84L115.22-5.84Q115.22-9.34 112.35-9.38ZM120.87 0L120.87-11.66 127.05-11.66Q128.43-11.66 129.16-11.45 129.89-11.25 130.49-10.72L130.49-10.72Q131.71-9.6 131.71-7.18L131.71-7.18 131.71 0 128.51 0 128.51-7.54Q128.51-8.4 128.12-8.79 127.74-9.17 126.85-9.17L126.85-9.17 124.08-9.17 124.08 0 120.87 0ZM139.71-2.49L142.34-2.49 142.34-11.66 145.55-11.66 145.55-0.24Q145.55 2.03 144.35 3.09 143.16 4.14 140.55 4.14L140.55 4.14 134.83 4.14 134.83 1.65 140.55 1.65Q141.58 1.65 141.89 1.44L141.89 1.44Q142.13 1.29 142.2 1.07 142.27 0.84 142.34 0L142.34 0 139.49 0Q134.56 0.12 134.83-5.15L134.83-5.15 134.83-11.66 138.03-11.66 138.03-5.46Q138.03-3.64 138.36-3.06 138.68-2.49 139.71-2.49L139.71-2.49Z" transform="translate(-0.5, 17.260000228881836)"></path></g> <!----> <!----> <!----> <!----> <!----> <!----> <!----></g></g> <g data-gra="path-slogan" fill-rule="" class="tp-slogan iconsvg-slogansvg" fill="#ff3938" transform="translate(-13.514999389648438,28.400001525878906)"><!----> <!----> <g transform="scale(1, 1)"><g transform="scale(1)"><path d="M5.80-7.28L5.80-7.28Q6.54-7.31 6.64-7.21L6.64-7.21Q6.64-7.17 6.61-7.14L6.61-7.14Q6.50-6.89 6.50-6.43L6.50-6.43L7.17-6.43Q7.66-6.43 8.09-6.50L8.09-6.50Q8.19-6.50 8.23-6.50L8.23-6.50L8.23-5.77Q8.23-5.77 8.16-5.77L8.16-5.77Q7.73-5.84 7.17-5.84L7.17-5.84L6.50-5.84L6.50-3.06L7.31-3.06Q7.80-3.06 8.33-3.13L8.33-3.13Q8.44-3.13 8.44-3.13L8.44-3.13L8.44-2.39Q8.44-2.39 8.37-2.39L8.37-2.39Q7.98-2.46 7.31-2.46L7.31-2.46L6.26-2.46Q7.28-1.41 8.65-1.09L8.65-1.09Q8.23-0.77 8.05-0.39L8.05-0.39Q6.50-1.20 5.66-2.46L5.66-2.46L3.55-2.46Q2.43-1.13 0.95-0.35L0.95-0.35Q0.74-0.67 0.28-0.95L0.28-0.95Q1.72-1.34 2.78-2.46L2.78-2.46L1.62-2.46Q1.16-2.46 0.63-2.39L0.63-2.39Q0.56-2.39 0.53-2.39L0.53-2.39L0.53-3.13Q0.53-3.13 0.63-3.13L0.63-3.13Q1.09-3.06 1.62-3.06L1.62-3.06L2.43-3.06L2.43-5.80L1.86-5.80Q1.27-5.80 0.77-5.73L0.77-5.73Q0.70-5.73 0.70-5.73L0.70-5.73L0.70-6.47Q0.70-6.47 0.81-6.47L0.81-6.47Q1.34-6.40 1.90-6.40L1.90-6.40L2.43-6.40L2.43-6.50Q2.43-6.86 2.39-7.17L2.39-7.17Q2.39-7.21 2.39-7.24L2.39-7.24Q3.13-7.28 3.27-7.17L3.27-7.17Q3.27-7.17 3.23-7.10L3.23-7.10Q3.13-6.89 3.13-6.40L3.13-6.40L5.87-6.40L5.87-6.54Q5.87-6.89 5.80-7.21L5.80-7.21Q5.80-7.24 5.80-7.28ZM5.87-5.24L5.87-5.80L3.13-5.80L3.13-5.24L5.87-5.24ZM5.87-4.75L3.13-4.75L3.13-4.15L5.87-4.15L5.87-4.75ZM5.87-3.62L3.13-3.62L3.13-3.06L5.87-3.06L5.87-3.62ZM4.18-2.25L4.18-2.25Q4.96-2.25 5.03-2.14L5.03-2.14Q5.03-2.14 5.03-2.11L5.03-2.11Q4.92-1.90 4.92-1.37L4.92-1.37L5.41-1.37Q5.94-1.37 6.33-1.44L6.33-1.44Q6.40-1.44 6.40-1.44L6.40-1.44L6.40-0.74Q6.40-0.74 6.33-0.74L6.33-0.74Q5.91-0.81 5.41-0.81L5.41-0.81L4.89-0.81L4.89 0L6.33 0Q7.14 0 7.70-0.11L7.70-0.11Q7.77-0.11 7.80-0.11L7.80-0.11L7.80 0.60Q7.80 0.60 7.73 0.60L7.73 0.60Q7.24 0.53 6.33 0.53L6.33 0.53L2.67 0.53Q1.97 0.53 1.48 0.60L1.48 0.60Q1.41 0.60 1.37 0.60L1.37 0.60L1.37-0.07Q1.37-0.07 1.48-0.07L1.48-0.07Q2.04 0 2.64 0L2.64 0L4.25 0L4.25-0.77L3.69-0.77Q3.16-0.77 2.74-0.70L2.74-0.70Q2.67-0.70 2.67-0.70L2.67-0.70L2.67-1.41Q2.71-1.41 2.85-1.41L2.85-1.41Q3.30-1.34 3.69-1.34L3.69-1.34L4.22-1.34L4.22-1.55Q4.22-1.83 4.18-2.14L4.18-2.14Q4.18-2.21 4.18-2.25ZM10.51-5.94L10.51-6.71Q10.51-6.71 10.54-6.71L10.54-6.71Q10.76-6.68 11.60-6.68L11.60-6.68L15.19-6.68Q15.92-6.68 16.52-6.75L16.52-6.75L16.52-5.94Q16.56-6.01 15.22-6.01L15.22-6.01L13.88-6.01L13.88-3.94L15.99-3.94Q16.59-3.94 17.29-4.01L17.29-4.01L17.29-3.20Q16.70-3.27 16.03-3.27L16.03-3.27L13.88-3.27L13.88-0.32Q13.92 0.21 13.60 0.35L13.60 0.35Q13.39 0.49 12.20 0.60L12.20 0.60Q12.13 0.11 11.85-0.28L11.85-0.28Q13.25-0.07 13.11-0.49L13.11-0.49L13.11-3.27L10.79-3.27Q10.19-3.27 9.56-3.20L9.56-3.20L9.56-4.01Q10.09-3.94 10.97-3.94L10.97-3.94L13.11-3.94L13.11-6.01L11.56-6.01Q10.69-6.01 10.51-5.94L10.51-5.94ZM19.26-3.80L22.64-3.80L22.64-6.43L23.52-6.43L23.52 0L22.64 0L22.64-2.99L19.26-2.99L19.26 0L18.38 0L18.38-6.43L19.26-6.43L19.26-3.80ZM28.96 0L28.33-1.86L25.73-1.86L25.06 0L24.18 0L26.61-6.43L27.59-6.43L29.91 0L28.96 0ZM27.03-5.48L26.01-2.64L28.01-2.64L27.06-5.48L27.03-5.48ZM33.64-2.78L31.53-2.78L31.53 0L30.65 0L30.65-6.43L33.64-6.43Q35.78-6.43 35.78-4.71L35.78-4.71Q35.78-3.66 34.87-3.16L34.87-3.16Q35.64-2.95 35.64-1.93L35.64-1.93L35.71-0.77Q35.67-0.28 36.03-0.14L36.03-0.14L36.03 0L34.94 0Q34.83-0.46 34.80-1.62L34.80-1.62Q34.83-2.78 33.64-2.78L33.64-2.78ZM33.71-5.73L31.53-5.73L31.53-3.52L33.57-3.52Q34.87-3.52 34.87-4.64L34.87-4.64Q34.87-5.73 33.71-5.73L33.71-5.73ZM43.06-6.43L43.06 0L42.21 0L42.21-3.80Q42.21-4.32 42.21-5.41L42.21-5.41L40.38 0L39.50 0L37.71-5.41L37.68-5.41Q37.68-5.03 37.71-4.25L37.71-4.25Q37.71-3.87 37.71-3.80L37.71-3.80L37.71 0L36.83 0L36.83-6.43L38.10-6.43L39.96-0.98L41.79-6.43L43.06-6.43ZM49.28-3.20L49.28-3.20Q49.14-5.73 47.03-5.87L47.03-5.87Q44.88-5.77 44.78-3.20L44.78-3.20Q44.88-0.70 47.03-0.60L47.03-0.60Q49.14-0.74 49.28-3.20ZM50.15-3.20L50.15-3.20Q49.94 0 47.03 0.11L47.03 0.11Q44.07 0 43.86-3.20L43.86-3.20Q44.04-6.54 47.03-6.61L47.03-6.61Q49.94-6.50 50.15-3.20ZM52.09-6.43L55.32-1.23L55.32-6.43L56.16-6.43L56.16 0L55.18 0L51.91-5.20L51.87-5.20L51.87 0L51.03 0L51.03-6.43L52.09-6.43ZM62.56-6.43L60.13-2.60L60.13 0L59.26 0L59.26-2.60L56.83-6.43L57.85-6.43L59.68-3.34L61.54-6.43L62.56-6.43ZM68.29-3.20L68.29-3.20Q68.15-5.73 66.04-5.87L66.04-5.87Q63.89-5.77 63.79-3.20L63.79-3.20Q63.89-0.70 66.04-0.60L66.04-0.60Q68.15-0.74 68.29-3.20ZM69.17-3.20L69.17-3.20Q68.96 0 66.04 0.11L66.04 0.11Q63.09 0 62.87-3.20L62.87-3.20Q63.05-6.54 66.04-6.61L66.04-6.61Q68.96-6.50 69.17-3.20ZM74.76-4.57L74.76-4.57L73.95-4.57Q73.88-5.80 72.33-5.87L72.33-5.87Q70.89-5.84 70.89-4.75L70.89-4.75Q70.89-4.04 71.66-3.94L71.66-3.94L73.49-3.52Q74.93-3.16 74.93-1.76L74.93-1.76Q74.90 0.04 72.40 0.11L72.40 0.11Q71.03 0.11 70.47-0.46L70.47-0.46Q69.76-0.98 69.80-2.07L69.80-2.07L70.64-2.07Q70.68-0.60 72.40-0.56L72.40-0.56Q74.09-0.60 74.12-1.65L74.12-1.65Q74.26-2.53 72.72-2.81L72.72-2.81L71.38-3.09Q70.01-3.48 70.01-4.64L70.01-4.64Q70.11-6.54 72.26-6.61L72.26-6.61Q74.68-6.61 74.76-4.57ZM80.76-7.31L80.76-7.31Q81.71-7.03 81.71-6.93L81.71-6.93Q81.71-6.89 81.64-6.86L81.64-6.86Q81.50-6.79 81.47-6.64L81.47-6.64Q81.15-6.12 80.98-5.55L80.98-5.55L82.28-5.55Q83.05-5.55 83.47-5.59L83.47-5.59Q83.19-0.98 83.12-0.18L83.12-0.18Q83.01 0.81 81.19 0.88L81.19 0.88Q81.08 0.35 80.76-0.04L80.76-0.04Q81.71 0.14 82.21-0.07L82.21-0.07Q82.45-0.04 82.56-3.20L82.56-3.20Q82.63-4.32 82.66-4.99L82.66-4.99L80.73-4.99Q80.38-4.32 79.89-3.45L79.89-3.45Q79.57-3.66 79.25-3.73L79.25-3.73L79.25-0.56Q79.25 0.32 79.29 0.56L79.29 0.56L78.48 0.56Q78.51 0.25 78.51-0.28L78.51-0.28L76.79-0.28Q76.79 0.25 76.83 0.63L76.83 0.63L76.02 0.63Q76.05 0.32 76.05-0.53L76.05-0.53L76.05-4.29Q76.05-4.43 76.02-4.96L76.02-4.96Q76.02-5.41 76.02-5.52L76.02-5.52Q76.55-5.48 76.79-5.48L76.79-5.48L77.04-5.48Q77.14-6.05 77.21-7.21L77.21-7.21Q78.20-7.10 78.13-6.96L78.13-6.96Q78.13-6.89 78.06-6.82L78.06-6.82Q77.99-6.75 77.95-6.64L77.95-6.64Q77.85-6.40 77.74-5.94L77.74-5.94Q77.67-5.66 77.64-5.48L77.64-5.48L78.23-5.48Q78.51-5.48 79.29-5.52L79.29-5.52Q79.25-5.27 79.25-4.39L79.25-4.39L79.25-3.90Q80.34-5.13 80.76-7.31ZM78.51-4.92L76.79-4.92L76.79-3.09L78.51-3.09L78.51-4.92ZM80.17-3.13L80.76-3.48Q80.98-3.20 81.50-2.18L81.50-2.18Q81.64-1.97 81.68-1.86L81.68-1.86L81.01-1.51Q80.91-1.93 80.17-3.13L80.17-3.13ZM78.51-2.57L76.79-2.57L76.79-0.84L78.51-0.84L78.51-2.57ZM86.11-7.21L86.11-7.21Q86.95-7.03 86.91-6.96L86.91-6.96Q86.63-6.79 86.42-6.43L86.42-6.43Q86.39-6.36 86.35-6.33L86.35-6.33L87.65-6.33Q88.64-6.33 88.88-6.36L88.88-6.36L88.88-5.73Q88.85-5.73 88.78-5.73L88.78-5.73Q88.36-5.77 87.51-5.77L87.51-5.77Q87.51-5.59 87.44-5.13L87.44-5.13Q87.41-4.99 87.41-4.92L87.41-4.92L87.97-4.92Q88.50-4.92 89.13-4.99L89.13-4.99L89.13-4.32Q88.53-4.39 87.97-4.39L87.97-4.39L87.30-4.39L87.27-4.22Q88.22-3.83 89.09-3.41L89.09-3.41L88.60-2.85Q87.76-3.48 87.06-3.80L87.06-3.80Q86.63-3.13 85.37-2.29L85.37-2.29Q85.19-2.50 84.56-2.81L84.56-2.81Q86.21-3.27 86.63-4.39L86.63-4.39L85.93-4.39Q85.44-4.39 84.88-4.32L84.88-4.32L84.88-4.99Q85.23-4.96 85.97-4.92L85.97-4.92L86.74-4.92Q86.84-5.24 86.84-5.80L86.84-5.80L86.00-5.80Q85.90-5.66 85.72-5.38L85.72-5.38Q85.58-5.20 85.54-5.13L85.54-5.13L84.88-5.41Q85.58-6.15 86.11-7.21ZM91.38-3.83L91.38-5.70L90.08-5.70L90.08-3.83L91.38-3.83ZM90.47-1.48L90.47-2.11L86.95-2.11L86.95-1.48L90.47-1.48ZM90.47-0.95L86.95-0.95L86.95-0.32L90.47-0.32L90.47-0.95ZM92.12-6.33L92.12-6.33Q92.12-6.33 92.08-5.55L92.08-5.55L92.08-3.94Q92.12-3.23 92.12-3.23L92.12-3.23Q91.73-3.27 91.34-3.30L91.34-3.30L90.22-3.30Q89.76-3.30 89.34-3.27L89.34-3.27Q89.38-3.27 89.38-3.87L89.38-3.87L89.38-5.52Q89.38-5.94 89.34-6.33L89.34-6.33Q89.66-6.22 90.11-6.22L90.11-6.22L91.34-6.22Q91.94-6.22 92.12-6.33ZM86.25-2.78L86.25-2.78Q86.60-2.71 87.06-2.71L87.06-2.71L90.40-2.71Q91.24-2.74 91.20-2.74L91.20-2.74Q91.13-2.50 91.13-1.90L91.13-1.90L91.13 0.14Q91.13 0.46 91.17 0.81L91.17 0.81L90.40 0.81Q90.43 0.63 90.43 0.21L90.43 0.21L86.95 0.21Q86.95 0.74 86.95 0.77L86.95 0.77L86.18 0.77Q86.28 0.35 86.28 0L86.28 0L86.28-2.04Q86.28-2.57 86.25-2.78ZM95.24-7.28L95.24-7.28Q95.98-7.28 96.02-7.17L96.02-7.17Q96.02-7.14 95.98-7.10L95.98-7.10Q95.91-6.96 95.91-6.86L95.91-6.86L95.91-6.54Q96.47-6.54 96.93-6.57L96.93-6.57Q97.04-6.57 97.07-6.57L97.07-6.57L97.07-5.98Q96.97-5.98 96.79-5.98L96.79-5.98Q96.37-6.01 95.91-6.01L95.91-6.01L95.91-5.55Q97.07-5.55 97.04-5.59L97.04-5.59L97.04-5.03Q97.04-5.03 96.97-5.03L96.97-5.03Q96.58-5.06 95.91-5.06L95.91-5.06L95.91-4.61Q96.83-4.64 97.11-4.64L97.11-4.64L97.11-4.01Q96.97-4.04 96.23-4.08L96.23-4.08Q96.02-4.08 95.91-4.08L95.91-4.08Q95.95-3.69 95.95-3.69L95.95-3.69L95.28-3.69Q95.31-3.87 95.31-4.08L95.31-4.08Q93.98-4.04 93.70-4.04L93.70-4.04L93.70-4.64Q93.80-4.64 93.94-4.64L93.94-4.64Q94.47-4.61 95.31-4.61L95.31-4.61L95.31-5.06Q94.96-5.06 94.08-5.06L94.08-5.06L94.08-5.63Q94.26-5.59 95.10-5.55L95.10-5.55Q95.00-5.55 95.31-5.55L95.31-5.55L95.31-6.01Q94.37-6.01 93.80-5.98L93.80-5.98L93.80-6.57Q93.80-6.54 95.31-6.54L95.31-6.54Q95.31-6.64 95.28-6.82L95.28-6.82Q95.28-7.28 95.24-7.28ZM96.90-0.84L97.49-1.16Q97.88-0.81 98.13-0.39L98.13-0.39L97.46-0.07Q97.25-0.53 96.90-0.84L96.90-0.84ZM99.39-0.63L100.03-1.05Q100.83-0.42 101.33 0.18L101.33 0.18L100.62 0.70Q100.10-0.07 99.39-0.63L99.39-0.63ZM95.39-0.88L95.39-0.88Q96.33-0.88 96.33-0.74L96.33-0.74Q96.33-0.67 96.26-0.60L96.26-0.60Q96.16-0.42 96.16-0.25L96.16-0.25Q96.05 0.25 96.83 0.18L96.83 0.18Q97.35 0.18 97.88 0.18L97.88 0.18Q98.72 0.18 98.76-0.63L98.76-0.63Q99.11-0.21 99.53-0.07L99.53-0.07Q99.18 0.88 98.06 0.77L98.06 0.77Q96.65 0.81 96.58 0.81L96.58 0.81Q95.17 0.98 95.42 0L95.42 0Q95.42-0.74 95.39-0.88ZM94.26-0.88L94.26-0.88L95.03-0.67Q94.68 0.18 94.30 0.81L94.30 0.81Q93.98 0.60 93.52 0.53L93.52 0.53Q93.59 0.39 93.73 0.11L93.73 0.11Q94.12-0.53 94.26-0.88ZM99.43-3.69L98.76-3.69L98.80-4.15Q97.64-4.15 97.49-4.11L97.49-4.11L97.49-4.68Q97.71-4.64 98.80-4.64L98.80-4.64L98.80-5.10Q98.20-5.10 97.74-5.06L97.74-5.06Q97.64-5.06 97.60-5.06L97.60-5.06L97.60-5.66Q97.56-5.59 98.80-5.59L98.80-5.59L98.80-6.01Q97.88-6.01 97.53-5.98L97.53-5.98L97.53-6.61Q97.74-6.57 98.41-6.54L98.41-6.54Q98.65-6.54 98.80-6.54L98.80-6.54Q98.80-7.28 98.76-7.28L98.76-7.28Q99.46-7.28 99.46-7.21L99.46-7.21Q99.46-7.17 99.43-7.07L99.43-7.07Q99.39-6.96 99.39-6.86L99.39-6.86L99.39-6.54Q100.24-6.54 100.76-6.57L100.76-6.57Q100.90-6.57 101.01-6.57L101.01-6.57L101.01-6.01Q101.01-6.01 99.39-6.01L99.39-6.01L99.39-5.59Q100.06-5.59 100.52-5.63L100.52-5.63Q100.69-5.63 100.76-5.63L100.76-5.63L100.76-5.06Q100.76-5.03 100.27-5.06L100.27-5.06Q99.78-5.10 99.39-5.10L99.39-5.10L99.39-4.64Q100.48-4.64 100.66-4.64L100.66-4.64Q100.94-4.64 101.15-4.68L101.15-4.68L101.15-4.08Q100.90-4.11 99.39-4.11L99.39-4.11L99.43-3.69ZM95.53-3.62L95.53-3.62L98.83-3.62Q100.03-3.66 100.41-3.69L100.41-3.69Q100.41-3.62 100.41-3.45L100.41-3.45Q100.38-2.92 100.38-2.32L100.38-2.32Q100.38-1.58 100.45-1.16L100.45-1.16Q100.10-1.23 99.08-1.23L99.08-1.23L95.56-1.23Q94.75-1.23 94.44-1.20L94.44-1.20L94.44-1.83Q94.82-1.76 95.56-1.76L95.56-1.76L99.67-1.76L99.67-2.18L95.84-2.18Q94.89-2.18 94.65-2.14L94.65-2.14L94.65-2.78Q95.17-2.71 95.84-2.71L95.84-2.71L99.64-2.71L99.64-3.09L95.53-3.09Q95.21-3.09 94.72-3.06L94.72-3.06Q94.44-3.06 94.37-3.06L94.37-3.06L94.37-3.69Q94.44-3.69 94.54-3.69L94.54-3.69Q95.07-3.62 95.53-3.62ZM106.95-7.24L106.95-7.24Q107.90-7.10 107.90-7.03L107.90-7.03Q107.90-7.00 107.86-6.93L107.86-6.93Q107.62-6.68 107.37-6.22L107.37-6.22L108.60-6.22Q109.06-6.22 109.62-6.29L109.62-6.29Q109.83-6.29 109.83-6.29L109.83-6.29Q109.02-4.43 108.43-3.94L108.43-3.94Q109.34-3.41 110.50-3.30L110.50-3.30Q110.08-2.74 110.04-2.46L110.04-2.46Q108.71-2.88 107.93-3.52L107.93-3.52Q107.34-3.02 106.46-2.60L106.46-2.60Q106.81-2.53 107.05-2.53L107.05-2.53L108.71-2.53Q109.06-2.53 109.48-2.60L109.48-2.60Q109.45-2.11 109.45-1.79L109.45-1.79L109.45-0.32Q109.45 0.14 109.48 0.60L109.48 0.60L108.78 0.60L108.81 0L106.98 0L107.02 0.67L106.32 0.67Q106.35 0.21 106.35-0.28L106.35-0.28L106.35-1.83Q106.35-2.39 106.32-2.50L106.32-2.50Q106.25-2.46 106.14-2.43L106.14-2.43Q106.07-2.39 106.04-2.39L106.04-2.39Q105.89-2.71 105.47-2.99L105.47-2.99Q106.56-3.30 107.51-3.94L107.51-3.94Q107.02-4.54 106.84-5.17L106.84-5.17L106.32-4.22Q105.96-4.36 105.65-4.46L105.65-4.46Q106.63-5.87 106.95-7.24ZM104.88-4.43L104.88-5.94L103.50-5.94L103.50-4.43L104.88-4.43ZM108.85-5.63L107.16-5.63Q107.37-5.13 107.97-4.32L107.97-4.32Q108.43-4.78 108.85-5.63L108.85-5.63ZM108.81-1.93L106.98-1.93L106.98-0.56L108.81-0.56L108.81-1.93ZM105.61-2.81L105.61-2.81L105.61-2.07Q105.61-2.07 105.58-2.07L105.58-2.07Q105.40-2.14 104.91-2.14L104.91-2.14L104.59-2.14L104.59-0.70Q105.33-0.88 105.79-1.05L105.79-1.05L105.72-0.32Q103.29 0.14 102.41 0.46L102.41 0.46L102.20-0.32Q102.45-0.32 102.73-0.39L102.73-0.39L102.73-2.11Q102.73-2.64 102.66-3.09L102.66-3.09Q103.50-3.02 103.54-2.92L103.54-2.92Q103.54-2.88 103.50-2.78L103.50-2.78Q103.40-2.53 103.40-2.14L103.40-2.14L103.40-0.49L103.93-0.60L103.93-3.83L103.47-3.83Q103.22-3.83 102.80-3.80L102.80-3.80Q102.84-4.18 102.84-4.43L102.84-4.43L102.84-5.87L102.80-6.57Q103.36-6.54 103.61-6.54L103.61-6.54L104.80-6.54Q105.16-6.54 105.58-6.57L105.58-6.57Q105.54-6.15 105.54-5.91L105.54-5.91L105.54-4.57Q105.54-4.15 105.58-3.80L105.58-3.80Q105.23-3.83 104.95-3.83L104.95-3.83L104.59-3.83L104.59-2.78L104.91-2.78Q105.33-2.78 105.54-2.81L105.54-2.81Q105.61-2.81 105.61-2.81ZM112.61-7.17L112.61-7.17Q113.63-7.10 113.63-7.03L113.63-7.03Q113.63-7.00 113.59-6.96L113.59-6.96Q113.45-6.68 113.45-6.22L113.45-6.22Q113.42-5.70 113.38-4.39L113.38-4.39Q113.42-4.43 113.52-4.54L113.52-4.54Q114.19-5.20 114.44-5.52L114.44-5.52Q115.07-4.82 115.07-4.75L115.07-4.75Q115.07-4.71 114.96-4.68L114.96-4.68Q114.29-4.43 113.31-3.69L113.31-3.69Q113.31-3.38 113.20-2.57L113.20-2.57Q113.35-2.46 113.70-2.18L113.70-2.18Q114.65-1.41 115.21-0.91L115.21-0.91Q114.96-0.81 114.58-0.53L114.58-0.53Q114.47-0.42 114.40-0.39L114.40-0.39Q114.01-0.98 113.06-1.90L113.06-1.90Q112.71-0.63 111.52 0.70L111.52 0.70Q111.41 0.63 111.27 0.49L111.27 0.49Q111.06 0.28 110.74 0.18L110.74 0.18Q112.68-0.98 112.68-4.50L112.68-4.50Q112.68-4.68 112.68-5.06L112.68-5.06Q112.71-6.33 112.61-7.17ZM114.65-5.63L114.65-6.40Q115.24-6.36 115.60-6.36L115.60-6.36L118.37-6.36Q118.83-6.36 119.25-6.40L119.25-6.40L119.25-5.63Q118.83-5.70 118.37-5.70L118.37-5.70L117.60-5.70L117.60-0.04Q117.92 0.53 116.02 0.77L116.02 0.77Q116.02 0.21 115.56-0.25L115.56-0.25Q116.97 0.04 116.86-0.56L116.86-0.56L116.86-5.70L115.60-5.70Q115.07-5.70 114.65-5.63L114.65-5.63ZM111.45-5.38L111.45-5.38L112.29-5.31Q112.19-4.96 112.01-3.66L112.01-3.66Q111.90-3.06 111.87-2.78L111.87-2.78L111.06-2.85Q111.48-4.15 111.45-5.38ZM123.71-6.86L124.31-7.24Q124.49-7.07 124.80-6.54L124.80-6.54Q124.91-6.36 124.98-6.29L124.98-6.29L124.45-5.98L126.28-5.98Q127.12-5.98 127.62-6.01L127.62-6.01L127.62-5.34Q126.95-5.41 126.25-5.41L126.25-5.41L124.59-5.41L124.59-4.85L125.75-4.85Q126.74-4.85 127.02-4.89L127.02-4.89L127.02-4.36Q126.46-4.43 125.75-4.43L125.75-4.43L124.59-4.43L124.59-3.87L125.79-3.87Q126.70-3.87 127.02-3.90L127.02-3.90L127.02-3.38Q126.46-3.45 125.82-3.45L125.82-3.45L124.59-3.45L124.59-2.85L125.72-2.85Q126.00-2.85 126.67-2.88L126.67-2.88Q127.27-2.88 127.51-2.88L127.51-2.88L127.51-2.25Q126.63-2.32 125.75-2.32L125.75-2.32L121.99-2.32L122.06-1.93L121.29-1.93Q121.36-2.36 121.36-3.41L121.36-3.41L121.36-4.89Q121.08-4.39 120.52-3.83L120.52-3.83L119.92-4.25Q121.25-5.52 122.03-7.14L122.03-7.14Q123.01-6.93 122.94-6.82L122.94-6.82Q122.94-6.75 122.80-6.64L122.80-6.64Q122.48-6.36 122.17-5.98L122.17-5.98L124.31-5.98Q124.07-6.43 123.71-6.86L123.71-6.86ZM123.96-4.85L123.96-5.41L121.99-5.41L121.99-4.85L123.96-4.85ZM123.96-4.43L121.99-4.43L121.99-3.87L123.96-3.87L123.96-4.43ZM123.96-3.45L121.99-3.45L121.99-2.85L123.96-2.85L123.96-3.45ZM123.71-2.21L123.71-2.21Q124.59-2.18 124.56-2.04L124.56-2.04Q124.56-2.00 124.52-1.93L124.52-1.93Q124.45-1.86 124.45-1.76L124.45-1.76L124.45-1.65L126.46-1.65Q126.91-1.65 127.65-1.72L127.65-1.72Q127.79-1.72 127.86-1.72L127.86-1.72L127.86-1.05Q127.27-1.13 126.46-1.13L126.46-1.13L125.09-1.13Q126.07-0.21 128.00-0.07L128.00-0.07Q127.62 0.25 127.44 0.70L127.44 0.70Q125.26 0.14 124.59-1.13L124.59-1.13L124.45-1.13L124.45-0.42Q124.45 0.18 124.52 0.81L124.52 0.81L123.71 0.81Q123.75 0.56 123.75-0.42L123.75-0.42L123.75-1.16L123.68-1.16Q122.91-0.11 120.73 0.70L120.73 0.70Q120.44 0.28 120.02 0L120.02 0Q121.75-0.14 123.05-1.16L123.05-1.16L121.71-1.16Q121.29-1.16 120.23-1.05L120.23-1.05L120.23-1.72Q120.37-1.72 121.01-1.69L121.01-1.69Q121.57-1.69 121.68-1.69L121.68-1.69L123.75-1.69L123.75-1.76Q123.75-1.90 123.71-2.21ZM135.77-7.14L135.77-7.14Q135.88-7.10 136.09-7.00L136.09-7.00Q136.68-6.75 136.61-6.68L136.61-6.68Q136.61-6.64 136.54-6.57L136.54-6.57Q136.12-6.22 135.56-5.38L135.56-5.38L135.95-5.38Q136.58-5.38 136.72-5.41L136.72-5.41L136.72-4.75Q136.54-4.78 135.95-4.78L135.95-4.78L135.21-4.78L135.21-3.73L135.84-3.73Q136.37-3.73 136.54-3.76L136.54-3.76Q136.58-3.76 136.58-3.76L136.58-3.76L136.58-3.06Q136.58-3.06 136.54-3.06L136.54-3.06Q136.37-3.09 135.84-3.09L135.84-3.09L135.21-3.09L135.21-1.90L136.02-1.90Q136.65-1.90 136.79-1.93L136.79-1.93L136.79-1.27Q136.61-1.30 135.98-1.30L135.98-1.30L135.21-1.30L135.21-0.25Q135.21 0.32 135.24 0.70L135.24 0.70Q135.24 0.81 135.24 0.81L135.24 0.81L134.54 0.81Q134.54 0.81 134.54 0.77L134.54 0.77Q134.58 0.53 134.58-0.28L134.58-0.28L134.58-1.30L133.91-1.30Q133.24-1.30 133.06-1.27L133.06-1.27L133.06-1.93Q133.24-1.90 133.84-1.90L133.84-1.90L134.58-1.90L134.58-3.09L134.08-3.09Q133.45-3.09 133.27-3.06L133.27-3.06L133.27-3.76Q133.42-3.73 134.08-3.73L134.08-3.73L134.58-3.73L134.58-4.78L134.19-4.78Q133.56-4.78 133.42-4.75L133.42-4.75L133.42-5.41Q133.59-5.38 134.15-5.38L134.15-5.38L134.96-5.38Q135.42-6.08 135.77-7.14ZM133.49-6.71L134.15-7.03Q134.19-6.96 134.36-6.64L134.36-6.64Q134.61-6.19 134.79-5.87L134.79-5.87L134.08-5.55Q133.91-6.05 133.56-6.61L133.56-6.61Q133.52-6.68 133.49-6.71L133.49-6.71ZM129.37-6.08L129.37-6.71Q129.76-6.64 130.46-6.64L130.46-6.64L131.69-6.64Q132.85-6.68 132.85-6.68L132.85-6.68Q132.78-6.57 132.78-5.80L132.78-5.80L132.78-5.24L133.27-5.27L133.27-4.64L132.78-4.68L132.78-4.08Q132.78-3.30 132.85-3.16L132.85-3.16Q132.85-3.16 132.82-3.16L132.82-3.16Q132.47-3.20 131.62-3.20L131.62-3.20L130.57-3.20Q130.39-2.64 130.22-2.36L130.22-2.36Q130.36-2.32 131.06-2.32L131.06-2.32L131.94-2.32Q132.61-2.32 132.75-2.39L132.75-2.39Q132.71-2.00 132.71-1.51L132.71-1.51L132.71-0.35Q132.71 0.32 132.78 0.56L132.78 0.56L132.04 0.56Q132.11 0.56 132.11-0.04L132.11-0.04L130.57-0.04Q130.57 0.28 130.64 0.60L130.64 0.60L129.90 0.60Q129.90 0.53 129.93 0.39L129.93 0.39Q129.97 0 129.97-0.39L129.97-0.39L129.97-1.23Q129.97-1.65 129.90-1.90L129.90-1.90Q129.79-1.58 129.20-0.74L129.20-0.74Q129.06-1.02 128.67-1.34L128.67-1.34Q129.55-2.25 129.93-3.20L129.93-3.20Q129.30-3.20 129.16-3.16L129.16-3.16L129.16-3.83Q129.30-3.80 130.11-3.80L130.11-3.80Q130.22-4.25 130.25-4.68L130.25-4.68L129.79-4.68Q129.20-4.68 128.99-4.64L128.99-4.64L128.99-5.27Q129.16-5.24 129.79-5.24L129.79-5.24L130.29-5.24Q130.32-5.48 130.36-6.12L130.36-6.12L130.15-6.12Q129.86-6.12 129.37-6.08L129.37-6.08ZM132.15-6.12L131.02-6.12Q130.99-5.73 130.92-5.24L130.92-5.24L132.15-5.24L132.15-6.12ZM132.15-4.68L130.88-4.68Q130.81-4.22 130.74-3.80L130.74-3.80L132.15-3.80L132.15-4.68ZM132.11-1.83L130.57-1.83L130.57-0.56L132.11-0.56L132.11-1.83ZM138.69-7.21L138.69-7.21Q139.57-7.17 139.57-7.00L139.57-7.00Q139.57-6.93 139.49-6.79L139.49-6.79Q139.39-6.64 139.39-6.47L139.39-6.47L139.39-5.27L139.57-5.27Q139.81-5.27 140.30-5.34L140.30-5.34L140.30-4.64Q140.13-4.68 139.57-4.68L139.57-4.68L139.39-4.68L139.39-3.27Q139.49-3.30 139.64-3.38L139.64-3.38Q140.06-3.52 140.41-3.69L140.41-3.69L140.41-2.95Q139.81-2.78 139.39-2.57L139.39-2.57L139.39-0.18Q139.35 0.70 138.19 0.81L138.19 0.81Q138.16 0.46 137.91 0L137.91 0Q138.41 0.07 138.65-0.04L138.65-0.04Q138.76-0.11 138.76-0.60L138.76-0.60L138.76-2.29Q138.48-2.18 137.74-1.79L137.74-1.79L137.49-2.60Q137.67-2.67 138.02-2.78L138.02-2.78Q138.51-2.92 138.76-3.02L138.76-3.02L138.76-4.68L138.51-4.68Q138.09-4.68 137.60-4.64L137.60-4.64L137.60-5.34Q138.23-5.27 138.51-5.27L138.51-5.27L138.76-5.27L138.76-6.33Q138.76-7.00 138.69-7.21ZM142.06-4.71L142.06-4.71L142.69-4.25Q142.06-3.41 141.32-2.85L141.32-2.85Q141.11-3.06 140.62-3.23L140.62-3.23Q141.64-4.04 142.06-4.71ZM143.40-4.25L143.96-4.71Q144.91-4.01 145.37-3.41L145.37-3.41L144.73-2.85Q144.17-3.66 143.40-4.25L143.40-4.25ZM140.73-1.76L140.73-2.53Q141.57-2.46 141.92-2.46L141.92-2.46L143.92-2.46Q144.42-2.46 145.12-2.53L145.12-2.53L145.12-1.79Q144.94-1.79 144.42-1.83L144.42-1.83Q144.07-1.83 143.99-1.83L143.99-1.83L143.29-1.83L143.29-0.21L144.38-0.21Q145.01-0.25 145.75-0.28L145.75-0.28L145.75 0.42Q145.54 0.42 144.91 0.39L144.91 0.39Q144.49 0.35 144.38 0.35L144.38 0.35L141.64 0.35Q141.01 0.35 140.20 0.42L140.20 0.42L140.20-0.28Q141.01-0.21 141.64-0.21L141.64-0.21L142.59-0.21L142.59-1.83L141.89-1.83Q141.50-1.83 140.73-1.76L140.73-1.76ZM142.41-7.07L143.29-7.24Q143.36-6.75 143.64-6.12L143.64-6.12L144.87-6.12Q145.23-6.12 145.65-6.19L145.65-6.19Q145.65-6.15 145.65-6.12L145.65-6.12Q145.58-5.80 145.58-5.55L145.58-5.55L145.58-5.17Q145.58-4.75 145.65-4.57L145.65-4.57L144.80-4.57Q144.87-4.75 144.87-5.17L144.87-5.17L144.87-5.52L141.29-5.52L141.29-5.20Q141.29-4.89 141.36-4.61L141.36-4.61L140.58-4.61Q140.66-4.78 140.66-5.20L140.66-5.20L140.66-5.52Q140.66-5.94 140.58-6.19L140.58-6.19Q140.76-6.12 141.29-6.12L141.29-6.12L142.83-6.12Q142.66-6.64 142.41-7.07L142.41-7.07ZM153.27-7.07L153.27-7.07Q153.31-7.07 153.41-7.07L153.41-7.07Q154.19-7.00 154.19-6.93L154.19-6.93Q154.22-6.82 154.12-6.64L154.12-6.64Q154.05-6.54 154.05-6.47L154.05-6.47L154.05-0.14Q154.05 0.63 152.50 0.63L152.50 0.63Q152.54 0.25 152.15-0.25L152.15-0.25Q153.24 0 153.34-0.46L153.34-0.46L153.34-5.91Q153.34-6.75 153.27-7.07ZM148.81-7.07L148.81-7.07Q149.72-7.00 149.72-6.89L149.72-6.89Q149.72-6.86 149.65-6.75L149.65-6.75Q149.58-6.64 149.58-6.57L149.58-6.57L149.58-5.80L150.04-5.80Q150.81-5.84 151.20-5.87L151.20-5.87L151.20-5.13Q150.92-5.20 150.04-5.20L150.04-5.20L149.58-5.20L149.58-4.25L150.29-4.25Q150.99-4.29 151.48-4.32L151.48-4.32L151.48-3.66Q151.23-3.69 150.32-3.69L150.32-3.69L149.55-3.69L149.55-2.81L150.22-2.81Q150.88-2.85 151.34-2.88L151.34-2.88Q151.38-2.88 151.38-2.85L151.38-2.85Q151.34-2.78 151.34-2.39L151.34-2.39Q151.31-2.14 151.31-1.97L151.31-1.97Q151.31-1.76 151.31-1.30L151.31-1.30Q151.31-0.84 151.27-0.56L151.27-0.56Q151.16-0.07 150.11-0.04L150.11-0.04Q150.11-0.46 149.76-0.88L149.76-0.88Q150.50-0.67 150.57-0.91L150.57-0.91Q150.60-1.27 150.60-2.25L150.60-2.25L149.55-2.25L149.55-0.49Q149.55 0 149.62 0.67L149.62 0.67L148.74 0.67Q148.77 0.21 148.81-0.49L148.81-0.49L148.81-2.25L147.86-2.25L147.86-1.02Q147.86-0.28 147.90-0.04L147.90-0.04L147.16-0.04Q147.16-0.14 147.16-0.42L147.16-0.42Q147.19-0.84 147.19-1.02L147.19-1.02L147.19-1.86Q147.19-2.43 147.12-2.85L147.12-2.85Q147.12-2.88 147.16-2.88L147.16-2.88Q147.72-2.81 148.25-2.81L148.25-2.81L148.84-2.81L148.84-3.69L147.82-3.69Q147.26-3.69 146.70-3.62L146.70-3.62L146.70-4.32Q147.26-4.25 147.82-4.25L147.82-4.25L148.84-4.25L148.84-5.20L147.72-5.20Q147.33-4.50 147.33-4.50L147.33-4.50Q147.09-4.68 146.70-4.75L146.70-4.75Q147.23-5.59 147.61-6.61L147.61-6.61L148.25-6.43Q148.21-6.36 148.14-6.22L148.14-6.22Q148.04-5.98 147.97-5.77L147.97-5.77L148.84-5.77L148.84-6.61Q148.84-6.79 148.81-6.96L148.81-6.96Q148.81-7.03 148.81-7.07ZM151.80-5.98L151.80-5.98Q152.36-5.98 152.68-5.84L152.68-5.84Q152.68-5.80 152.64-5.66L152.64-5.66Q152.57-5.48 152.57-5.34L152.57-5.34L152.57-2.25Q152.57-1.62 152.64-1.05L152.64-1.05L151.83-1.05Q151.83-1.16 151.83-1.65L151.83-1.65Q151.87-2.18 151.87-2.32L151.87-2.32L151.87-5.13Q151.87-5.80 151.80-5.98ZM162.27-6.93L162.27-6.93Q162.31-6.86 162.41-6.71L162.41-6.71Q162.83-6.08 162.76-6.08L162.76-6.08Q161.81-6.08 159.21-5.84L159.21-5.84Q159.74-5.63 159.85-5.52L159.85-5.52Q159.85-5.48 159.64-5.41L159.64-5.41Q159.32-5.31 159.14-5.17L159.14-5.17Q158.93-5.03 158.33-4.64L158.33-4.64Q157.95-4.39 157.70-4.25L157.70-4.25L160.02-4.39Q160.87-5.03 161.25-5.45L161.25-5.45Q161.92-5.03 162.03-4.89L162.03-4.89Q162.03-4.85 161.89-4.78L161.89-4.78Q161.57-4.64 161.29-4.46L161.29-4.46Q161.25-4.43 161.15-4.36L161.15-4.36Q159.35-3.20 157.91-2.64L157.91-2.64L161.53-2.78Q160.76-3.30 160.72-3.30L160.72-3.30L161.29-3.83Q162.55-2.88 163.19-2.25L163.19-2.25L162.59-1.69Q162.38-2.00 162.06-2.25L162.06-2.25L159.99-2.14L159.99-0.11Q160.27 0.60 158.58 0.67L158.58 0.67Q158.51 0.25 158.37-0.04L158.37-0.04Q158.33-0.11 158.33-0.11L158.33-0.11Q159.35 0 159.25-0.46L159.25-0.46L159.25-2.11L157.63-2.04Q157.53-2.04 157.35-2.00L157.35-2.00Q156.79-1.97 156.51-1.90L156.51-1.90L156.26-2.67Q157.07-2.71 159.21-3.87L159.21-3.87Q157.46-3.76 157.00-3.59L157.00-3.59L156.58-4.32Q157.81-4.85 158.79-5.80L158.79-5.80L156.37-5.52Q156.30-5.77 156.15-6.05L156.15-6.05Q156.05-6.22 155.98-6.33L155.98-6.33Q159.25-6.33 162.27-6.93ZM160.76-1.13L161.32-1.65Q161.74-1.37 162.83-0.53L162.83-0.53Q163.08-0.32 163.19-0.25L163.19-0.25L162.52 0.32Q161.60-0.63 160.76-1.13L160.76-1.13ZM157.63-1.65L157.63-1.65L158.30-1.20Q157.07 0 156.58 0.35L156.58 0.35Q156.30 0 155.87-0.11L155.87-0.11Q156.89-0.77 157.63-1.65ZM169.13-7.21L169.76-7.38Q170.04-6.71 170.18-6.26L170.18-6.26L169.55-6.08Q169.51-6.54 169.13-7.21L169.13-7.21ZM165.57-7.14L165.57-7.14Q165.71-7.07 165.96-7.00L165.96-7.00Q166.45-6.79 166.45-6.71L166.45-6.71Q166.49-6.64 166.24-6.43L166.24-6.43Q166.10-6.33 166.07-6.29L166.07-6.29Q165.64-5.66 164.94-4.46L164.94-4.46L166.28-4.50L166.66-5.27Q166.80-5.20 167.05-5.06L167.05-5.06Q167.47-4.89 167.44-4.82L167.44-4.82Q167.44-4.78 167.33-4.71L167.33-4.71Q167.12-4.54 166.98-4.32L166.98-4.32Q166.66-3.83 165.79-2.67L165.79-2.67Q165.47-2.32 165.33-2.11L165.33-2.11Q165.57-2.18 166.03-2.25L166.03-2.25Q166.77-2.43 167.30-2.53L167.30-2.53L167.16-1.83Q165.54-1.62 164.63-1.34L164.63-1.34L164.34-2.14Q165.12-2.64 165.96-3.97L165.96-3.97L165.12-3.94Q164.77-3.90 164.41-3.80L164.41-3.80L164.13-4.54Q164.94-5.34 165.57-7.14ZM172.25-6.01L172.25-6.01L172.25-5.27Q171.80-5.34 171.27-5.34L171.27-5.34L168.32-5.34Q167.86-5.34 167.30-5.27L167.30-5.27L167.30-6.01Q167.79-5.94 168.39-5.94L168.39-5.94L171.27-5.94Q171.66-5.94 172.25-6.01ZM167.44-1.02L167.44-1.02L167.37-0.28Q165.57-0.04 164.38 0.28L164.38 0.28L164.17-0.42Q165.54-0.56 167.44-1.02ZM169.02-5.27L169.02-5.27Q169.27-5.10 169.51-4.96L169.51-4.96Q169.65-4.89 169.72-4.85L169.72-4.85Q169.72-4.82 169.58-4.71L169.58-4.71Q168.95-4.18 168.25-3.41L168.25-3.41L170.81-3.52Q170.43-4.08 170.18-4.25L170.18-4.25L170.78-4.68Q170.85-4.57 171.13-4.25L171.13-4.25Q172.01-3.16 172.18-2.92L172.18-2.92L171.48-2.43Q171.45-2.67 171.20-2.99L171.20-2.99L170.39-2.99L170.39-0.25Q170.36 0.07 170.74 0.04L170.74 0.04L171.09 0.04Q171.55 0.14 171.62-0.77L171.62-0.77Q171.83-0.49 172.36-0.32L172.36-0.32Q172.15 0.74 171.48 0.70L171.48 0.70L170.32 0.70Q169.76 0.70 169.76 0.04L169.76 0.04L169.76-2.92L169.13-2.92Q169.13-1.13 168.77-0.42L168.77-0.42Q168.53 0.25 167.47 0.91L167.47 0.91Q167.23 0.70 166.77 0.49L166.77 0.49Q166.66 0.42 166.66 0.42L166.66 0.42Q167.82 0 168.11-0.60L168.11-0.60Q168.46-1.20 168.46-2.85L168.46-2.85Q168.42-2.85 168.35-2.85L168.35-2.85Q168.11-2.81 167.61-2.71L167.61-2.71L167.33-3.48Q167.89-3.76 169.02-5.27Z" transform="translate(-0.28125, 7.3828125)"></path></g></g></g></g></g><defs v-gra="od"></defs></svg>