<?xml version="1.0" standalone="no"?><!DOCTYPE svg PUBLIC "-//W3C//DTD SVG 1.1//EN" "http://www.w3.org/Graphics/SVG/1.1/DTD/svg11.dtd"><svg t="1729836230128" class="icon" viewBox="0 0 1024 1024" version="1.1" xmlns="http://www.w3.org/2000/svg" p-id="14855" xmlns:xlink="http://www.w3.org/1999/xlink" width="200" height="200"><path d="M921.6 228.124444v567.751112c0 20.48-6.371556 38.115556-18.773333 52.679111-12.458667 14.563556-27.534222 21.845333-45.112889 21.845333h-141.027556v-44.828444a16.156444 16.156444 0 0 0-3.584-10.752 11.605333 11.605333 0 0 0-9.216-4.152889h-25.6a11.776 11.776 0 0 0-9.216 4.152889 15.644444 15.644444 0 0 0-3.584 10.808888v44.771556h-307.2v-44.828444a16.156444 16.156444 0 0 0-3.584-10.752 11.377778 11.377778 0 0 0-9.216-4.152889h-25.6a11.776 11.776 0 0 0-9.216 4.152889 15.644444 15.644444 0 0 0-3.584 10.808888v44.771556H166.286222c-17.635556 0-32.654222-7.395556-45.169778-21.845333a78.222222 78.222222 0 0 1-18.716444-52.736V228.124444c0-20.48 6.257778-38.115556 18.773333-52.679111 12.458667-14.563556 27.534222-21.845333 45.112889-21.845333h691.2c17.635556 0 32.654222 7.395556 45.169778 21.845333 12.515556 14.449778 18.944 32.085333 18.944 52.736V228.124444z m-444.131556 430.648889c9.671111-11.093333 14.506667-24.860444 14.506667-41.528889 0-16.725333-1.137778-32.028444-3.470222-45.966222a185.856 185.856 0 0 0-11.548445-40.277333 67.868444 67.868444 0 0 0-23.608888-30.549333 64.113778 64.113778 0 0 0-37.888-11.150223c-1.706667 1.137778-5.575111 3.413333-11.776 7.054223l-14.563556 8.476444a137.671111 137.671111 0 0 1-13.937778 6.826667 77.596444 77.596444 0 0 1-66.332444 0 167.139556 167.139556 0 0 1-13.937778-6.826667 1005.056 1005.056 0 0 1-26.339556-15.473778c-14.791111 0-27.363556 3.697778-37.888 11.150222a69.233778 69.233778 0 0 0-23.665777 30.549334 184.32 184.32 0 0 0-11.548445 40.277333 271.872 271.872 0 0 0-3.470222 45.909333c0 16.725333 4.835556 30.606222 14.506667 41.585778 9.614222 11.150222 21.504 16.611556 35.612444 16.611556h199.964445c13.710222 0.113778 26.737778-5.973333 35.384888-16.611556zM404.593778 463.36c16.952889-16.440889 26.339556-39.139556 25.998222-62.691556 0-24.462222-8.590222-45.397333-25.998222-62.691555a85.504 85.504 0 0 0-62.691556-25.998222c-24.462222 0-45.397333 8.533333-62.691555 25.998222a85.617778 85.617778 0 0 0-26.055111 62.691555c0 24.462222 8.647111 45.397333 26.055111 62.691556 16.384 16.952889 39.082667 26.396444 62.691555 25.998222 24.462222 0 45.397333-8.704 62.691556-25.998222z m421.376-63.886222v-25.031111a11.946667 11.946667 0 0 0-12.515556-12.515556h-224.938666a11.946667 11.946667 0 0 0-12.515556 12.515556v25.031111c0 3.584 1.137778 6.656 3.470222 8.988444a11.946667 11.946667 0 0 0 9.045334 3.470222H813.511111a12.515556 12.515556 0 0 0 8.988445-3.413333 12.174222 12.174222 0 0 0 3.527111-9.102222h-0.056889z m0 98.474666v-21.902222a13.539556 13.539556 0 0 0-4.096-9.898666 13.653333 13.653333 0 0 0-9.898667-4.096h-221.980444a13.539556 13.539556 0 0 0-9.898667 4.096 13.653333 13.653333 0 0 0-4.096 9.898666v21.902222c0 3.925333 1.365333 7.168 4.096 9.898667a13.653333 13.653333 0 0 0 9.898667 4.096h221.809777c3.925333 0 7.168-1.365333 9.898667-4.096a13.312 13.312 0 0 0 4.323556-9.898667h-0.056889z m0 101.489778v-24.974222a12.401778 12.401778 0 0 0-3.470222-8.988444 11.946667 11.946667 0 0 0-8.988445-3.527112h-224.995555a12.515556 12.515556 0 0 0-9.045334 3.527112 12.401778 12.401778 0 0 0-3.470222 8.988444v25.031111c0 3.527111 1.137778 6.599111 3.470222 8.988445 2.389333 2.332444 5.688889 3.584 9.045334 3.413333H813.511111c3.584 0 6.656-1.137778 8.988445-3.413333a12.174222 12.174222 0 0 0 3.527111-9.045334h-0.056889z" fill="#A79AF4" p-id="14856"></path></svg>