<?xml version="1.0" standalone="no"?><!DOCTYPE svg PUBLIC "-//W3C//DTD SVG 1.1//EN" "http://www.w3.org/Graphics/SVG/1.1/DTD/svg11.dtd"><svg t="1730447723930" class="icon" viewBox="0 0 1024 1024" version="1.1" xmlns="http://www.w3.org/2000/svg" p-id="6177" xmlns:xlink="http://www.w3.org/1999/xlink" width="200" height="200"><path d="M511.442465 785.070983l-115.51781-63.828123-0.51199-0.341327A213.734615 213.734615 0 0 1 298.731831 542.195588V298.680204l213.329289-42.665858 213.329289 42.665858v243.472718a213.734615 213.734615 0 0 1-96.680834 178.791277l-0.51199 0.341327-0.554656 0.277328z m-99.219452-90.920943l99.262118 54.804294 100.392763-54.910959a182.012549 182.012549 0 0 0 81.833116-151.975785v-217.595875L512.06112 288.291068l-181.735221 36.265979v217.595875a181.948551 181.948551 0 0 0 81.93978 152.039784z" fill="#2CDBB3" p-id="6178"></path><path d="M490.386864 628.700614L356.330739 494.644489l35.945985-36.031317 98.131473 98.024808 156.903692-156.903692 36.031317 36.031317z" fill="#2CDBB3" p-id="6179"></path><path d="M511.975788 1023.999787a511.990294 511.990294 0 1 1 428.045219-230.950289 27.220817 27.220817 0 0 1-24.511536 12.394432 27.732808 27.732808 0 0 1-22.975564-15.125046l-97.875478-195.153634a27.519478 27.519478 0 0 1 48.447082-24.703532l75.497235 150.013156a456.738008 456.738008 0 1 0-160.871617 177.06331 27.434147 27.434147 0 1 1 29.076782 46.228457A510.112996 510.112996 0 0 1 511.975788 1023.999787z" fill="#2CDBB3" p-id="6180"></path></svg>