<?xml version="1.0" standalone="no"?><!DOCTYPE svg PUBLIC "-//W3C//DTD SVG 1.1//EN" "http://www.w3.org/Graphics/SVG/1.1/DTD/svg11.dtd"><svg t="1729836298312" class="icon" viewBox="0 0 1024 1024" version="1.1" xmlns="http://www.w3.org/2000/svg" p-id="15935" xmlns:xlink="http://www.w3.org/1999/xlink" width="200" height="200"><path d="M602.432 826.915c-14.731-28.924-22.518-55.773-22.518-77.641v-117.944c-3.742-0.806-7.495-1.574-11.258-2.299 0 0-30.476-18.439-28.789-56.937 14.128-5.272 44.684-79.616 46.034-93.457 0 0 42.816-33.667 45.274-84.217 2.665-50.412-9.381-52.765-9.381-52.765 17.963-54.981 23.78-261.338-108.716-236.703-22.117-43.286-160.567-77.229-225.084 38.094-32.189 57.506-44.165 135.98-19.036 200.060-0.9 4.775-8.861-4.672-11.769 24.948-2.803 28.545 10.038 69.443 24.056 88.438 6.056 7.994 15.817 13.84 22.636 16.816 0 0 8.376 50.829 48.076 98.785 9.137 38.026-28.624 58.095-28.624 58.095-125.053 24.046-240.001 93.455-240.001 168.537 0 5.536 0 58.164 0 58.164 0 81.485 189.814 98.957 360.696 98.957 16.098 0 32.346-0.443 48.574-1.284 68.117-1.301 136.419-5.954 192.070-16.817-5.51-5.668-10.895-11.414-16.089-17.206-27.952-31.161-50.826-63.536-66.15-93.625zM899.966 582.594c-41.034 0-79.731-13.358-110.814-36.446-31.085 23.089-69.78 36.446-110.814 36.446-14.259 0-29.018-2.65-44.205-7.919v174.417c0 16.186 5.759 36.058 16.652 57.468 11.333 22.27 28.249 46.234 48.92 69.299 18.358 20.483 39.792 40.311 60.359 55.829 9.043 6.824 16.584 11.826 22.485 15.383 2.918 1.759 6.568 1.72 9.451-0.095 5.98-3.766 13.599-8.967 22.741-15.931 21.218-16.164 43.19-36.279 61.869-56.644 21.408-23.338 38.885-47.333 50.542-69.393 11.134-21.072 17.019-40.409 17.019-55.916v-174.417c-15.187 5.269-29.946 7.918-44.205 7.918z" fill="#4C8BF4" p-id="15936"></path></svg>