<?xml version="1.0" standalone="no"?><!DOCTYPE svg PUBLIC "-//W3C//DTD SVG 1.1//EN" "http://www.w3.org/Graphics/SVG/1.1/DTD/svg11.dtd"><svg t="1729691089971" class="icon" viewBox="0 0 1024 1024" version="1.1" xmlns="http://www.w3.org/2000/svg" p-id="2318" xmlns:xlink="http://www.w3.org/1999/xlink" width="200" height="200"><path d="M432.808 893.463H240.965c-48.61 0-88.157-39.548-88.157-88.158V229.62c0-48.61 39.547-88.157 88.157-88.157H721.65c48.61 0 88.157 39.547 88.157 88.157v227.843c0 13.255-10.745 24-24 24s-24-10.745-24-24V229.62c0-22.143-18.015-40.157-40.157-40.157H240.965c-22.143 0-40.157 18.015-40.157 40.157v575.685c0 22.144 18.015 40.158 40.157 40.158h191.843c13.255 0 24 10.745 24 24s-10.746 24-24 24z" p-id="2319"></path><path d="M304.808 301.462h368.71v48h-368.71zM304.808 493.463h246.768v48H304.808z" p-id="2320"></path><path d="M710.549 766.408c-59.904 0-108.641-48.735-108.641-108.64s48.736-108.641 108.641-108.641 108.64 48.736 108.64 108.641-48.736 108.64-108.64 108.64z m0-173.28c-35.643 0-64.641 28.998-64.641 64.641s28.998 64.64 64.641 64.64 64.64-28.997 64.64-64.64-28.998-64.641-64.64-64.641z" p-id="2321"></path><path d="M864.765 874.819h-44c0-60.524-49.24-109.765-109.765-109.765s-109.765 49.24-109.765 109.765h-44c0-84.786 68.979-153.765 153.765-153.765s153.765 68.979 153.765 153.765z" p-id="2322"></path></svg>