<?xml version="1.0" standalone="no"?><!DOCTYPE svg PUBLIC "-//W3C//DTD SVG 1.1//EN" "http://www.w3.org/Graphics/SVG/1.1/DTD/svg11.dtd"><svg t="1729833958625" class="icon" viewBox="0 0 1024 1024" version="1.1" xmlns="http://www.w3.org/2000/svg" p-id="3584" xmlns:xlink="http://www.w3.org/1999/xlink" width="200" height="200"><path d="M896.309247 179.869275h-768.599033c-31.225134 0-56.62049 25.372246-56.62049 56.558458V788.595185c0 31.182563 25.395356 56.558458 56.62049 56.558457h768.599033c31.26284 0 56.601029-25.375895 56.601029-56.558457V236.427733c-0.004865-31.186212-25.338189-56.558458-56.601029-56.558458m14.690603 608.72591c0 8.020354-6.589973 14.648032-14.695468 14.648032H127.710214c-8.082386 0-14.71493-6.627678-14.71493-14.648032V236.427733c0-8.019138 6.632543-14.652898 14.71493-14.652898h768.599033c8.100631 0 14.690603 6.63376 14.690603 14.652898V788.595185z m0 0" fill="" p-id="3585"></path><path d="M424.190866 533.872919c30.734961-23.489396 50.993835-60.159954 50.993835-101.656834 0-70.721182-57.498666-128.263635-128.177277-128.263635-70.679828 0-128.178494 57.542453-128.178494 128.263635 0 41.49688 20.235765 78.167438 50.990187 101.656834-68.508713 29.876245-116.613809 98.141695-116.61381 177.615451 0 11.540358 9.349782 20.957037 20.952172 20.957037 11.559819 0 20.953388-9.416679 20.953388-20.957037 0-82.424526 65.994598-149.378793 147.843809-151.502472 1.39146 0 2.660072 0.40868 4.052748 0.408681 1.386594 0 2.660072-0.40868 4.010177-0.408681 81.929487 2.128544 147.899759 69.077946 147.899759 151.502472 0 11.540358 9.374108 20.957037 20.958253 20.957037 11.578064 0 20.952172-9.416679 20.952172-20.957037 0-79.473755-48.124558-147.739206-116.636919-177.615451M260.739355 432.216085c0-47.635601 38.670173-86.35321 86.268069-86.35321 47.554108 0 86.271717 38.717609 86.271717 86.35321 0 46.162648-36.589065 83.650567-82.26154 85.859388-1.34524-0.080277-2.618717-0.40868-4.005312-0.40868-1.392676 0-2.661288 0.328404-4.052748 0.40868-45.678557-2.208821-82.220186-39.696739-82.220186-85.859388" fill="" p-id="3586"></path><path d="M864.764223 304.166521c-16.912803 0-30.693606 13.780803-30.693606 30.692389 0 3.928684 0.889123 7.581266 2.239229 11.050185l-90.081203 112.579306c-1.442545-0.215287-2.731834-0.858716-4.235195-0.858715-2.669802 0-5.034311 0.889123-7.519234 1.534984l-86.09292-86.123327c0.645861-2.456948 1.534984-4.849432 1.534985-7.488827 0-16.911587-13.782019-30.693606-30.693606-30.693606s-30.691173 13.782019-30.691174 30.693606c0 6.138721 2.269636 11.539142 5.370013 16.327758l-68.781166 137.563549c-15.930024 1.10441-28.666016 14.086097-28.666016 30.29344 0 16.910371 13.780803 30.691173 30.691174 30.691173 16.912803 0 30.693606-13.780803 30.693606-30.691173 0-6.138721-2.272069-11.511167-5.370013-16.330191l68.811574-137.59274c1.873119-0.122847 3.622174-0.644645 5.401637-1.106843l86.153735 86.153735c-0.643428 2.456948-1.534984 4.819024-1.534985 7.458419 0 16.911587 13.782019 30.69239 30.693606 30.692389s30.693606-13.780803 30.693606-30.692389c0-3.89706-0.891556-7.550858-2.211253-10.986937l90.112827-112.642554c1.410921 0.215287 2.702643 0.861148 4.175596 0.861148 16.910371 0 30.691173-13.780803 30.691173-30.693606-0.001216-16.910371-13.782019-30.691173-30.69239-30.691173z m0 0" fill="" p-id="3587"></path></svg>