<?xml version="1.0" standalone="no"?><!DOCTYPE svg PUBLIC "-//W3C//DTD SVG 1.1//EN" "http://www.w3.org/Graphics/SVG/1.1/DTD/svg11.dtd"><svg t="1729834778513" class="icon" viewBox="0 0 1029 1024" version="1.1" xmlns="http://www.w3.org/2000/svg" p-id="7607" xmlns:xlink="http://www.w3.org/1999/xlink" width="200.9765625" height="200"><path d="M868.789323 90.783603c36.118208 0 65.403241 29.285033 65.403241 65.403242v707.721639c0 36.118208-29.285033 65.403241-65.403241 65.403241H161.067684c-36.118208 0-65.403241-29.285033-65.403242-65.403241V156.186845c0-36.118208 29.285033-65.403241 65.403242-65.403242H868.789323m0-68.331744H161.067684C86.878932 22.451859 26.35653 82.974261 26.35653 156.186845v707.721639c0 74.188751 60.522402 133.734986 133.734986 133.734986H868.789323c74.188751 0 133.734986-60.522402 133.734986-133.734986V156.186845c0-73.212583-59.546235-133.734986-133.734986-133.734986z" p-id="7608"></path><path d="M460.751192 811.195424c-13.666349 0-23.428027-4.880839-30.261202-15.618684-4.880839-8.78551-4.880839-15.618684-2.928503-23.428027 3.904671-8.78551 11.714013-15.618684 25.380362-22.451859 56.617731-23.428027 96.64061-52.71306 118.116302-86.878932 27.332698-31.237369 40.022879-91.759771 38.070543-180.591039 1.952336-19.523356 11.714013-29.285033 31.237369-29.285034 17.57102 1.952336 27.332698 11.714013 29.285033 32.213537 3.904671 89.807436-6.833174 156.186845-33.189704 196.209724 4.880839-4.880839 11.714013-5.857007 17.57102-5.857007 2.928503 0 9.761678 0.976168 11.714013 1.952336 39.046711 11.714013 79.06959 32.213537 120.068637 58.570066 23.428027 12.690181 32.213537 26.35653 26.35653 42.951383-6.833174 13.666349-16.594852 20.499523-29.285033 20.499523-4.880839 0-12.690181-1.952336-18.547188-4.880839-32.213537-20.499523-74.188751-39.046711-124.949476-55.641563-8.78551-4.880839-16.594852-12.690181-17.57102-24.404195l0.976168-8.78551-5.857007 6.833175c-34.165872 39.046711-81.021926 70.28408-137.639657 96.64061-5.857007 0-12.690181 1.952336-18.547187 1.952335z m-157.163013-12.690181c-14.642517 0-33.189704-2.928503-54.665395-5.857007-17.57102-4.880839-26.35653-15.618684-24.404195-35.14204 4.880839-13.666349 13.666349-20.499523 31.237369-20.499523h4.880839c5.857007 0.976168 11.714013 1.952336 16.594852 1.952336 7.809342 0 13.666349-1.952336 17.57102-5.857007 2.928503-3.904671 4.880839-7.809342 3.904671-13.666349L295.778837 497.845567h-62.474738c-17.57102-1.952336-27.332698-11.714013-29.285033-31.237369 2.928503-17.57102 13.666349-27.332698 32.213536-29.285033l77.117255-0.976168-8.78551-6.833174c-11.714013-9.761678-23.428027-18.547188-32.213537-27.332698-7.809342-5.857007-13.666349-11.714013-17.57102-14.642517-12.690181-13.666349-13.666349-25.380362-4.880839-38.070543 6.833174-6.833174 14.642517-10.737846 23.428027-10.737846 4.880839 0 10.737846 1.952336 16.594852 4.880839 14.642517 7.809342 27.332698 17.57102 37.094376 27.332698l3.904671 3.904671 2.928503-4.880839c7.809342-14.642517 16.594852-32.213537 25.380363-50.760724 4.880839-10.737846 1.952336-14.642517-0.976168-17.57102-2.928503-4.880839-7.809342-5.857007-15.618685-5.857007l-94.688274 0.976168c-17.57102-1.952336-27.332698-10.737846-29.285034-29.285034 1.952336-19.523356 9.761678-30.261201 26.35653-31.237369l146.425167-1.952335h5.857007c18.547188 0 32.213537 4.880839 38.070543 12.690181 5.857007 7.809342 6.833174 19.523356 2.928504 35.14204-13.666349 49.784557-35.14204 100.545281-67.355577 149.35367l-3.904671 6.833175h53.689228c29.285033 1.952336 40.022879 14.642517 40.022879 50.760724 0 16.594852 0 25.380362-0.976168 36.118208v4.880839c0 13.666349-20.499523 24.404194-35.14204 24.404194-4.880839 0-8.78551-0.976168-11.714014-3.904671-3.904671-3.904671-4.880839-11.714013-4.880838-22.451859v-31.237369h-52.713061l1.952336 255.755958c0.976168 13.666349-1.952336 23.428027-7.809342 30.261202-8.78551 10.737846-23.428027 15.618684-45.879886 15.618684z m453.918017-132.758818c-19.523356-1.952336-30.261201-9.761678-32.213536-26.35653l-1.952336-205.971401c0-16.594852-10.737846-19.523356-16.594852-19.523356l-142.520496 0.976168c-9.761678 0-16.594852 7.809342-16.594852 16.594852l1.952335 205.971402c-1.952336 16.594852-10.737846 24.404194-29.285033 26.35653-19.523356-1.952336-30.261201-9.761678-31.237369-26.35653l-1.952335-234.280267c0-13.666349 4.880839-25.380362 13.666349-35.14204 8.78551-9.761678 21.475691-13.666349 34.165872-14.642517h56.617731l17.57102-61.49857-113.235462 0.976168c-17.57102-1.952336-27.332698-11.714013-29.285034-32.213537 0-17.57102 7.809342-27.332698 26.35653-29.285033l291.874166-1.952336c15.618684 1.952336 25.380362 10.737846 29.285034 29.285033-1.952336 19.523356-10.737846 30.261201-26.35653 32.213537l-114.211631 0.976168-13.666349 61.49857 77.117255-0.976168h5.857007c15.618684 0 27.332698 3.904671 34.165872 11.714014 5.857007 6.833174 9.761678 16.594852 8.78551 30.261201l1.952336 245.018112c-2.928503 15.618684-12.690181 24.404194-30.261202 26.35653z" p-id="7609"></path></svg>