<?xml version="1.0" standalone="no"?><!DOCTYPE svg PUBLIC "-//W3C//DTD SVG 1.1//EN" "http://www.w3.org/Graphics/SVG/1.1/DTD/svg11.dtd"><svg t="1729600390819" class="icon" viewBox="0 0 1024 1024" version="1.1" xmlns="http://www.w3.org/2000/svg" p-id="4805" xmlns:xlink="http://www.w3.org/1999/xlink" width="200" height="200"><path d="M825.571556 176.355556c68.778667 0 124.472889 55.751111 124.472888 124.416v422.456888c0 68.721778-55.751111 124.416-124.472888 124.416H198.485333A124.416 124.416 0 0 1 73.955556 723.171556V300.828444C73.955556 232.106667 129.706667 176.355556 198.428444 176.355556zM893.155556 358.456889l-366.08 228.864a28.444444 28.444444 0 0 1-25.372445 2.389333l-4.778667-2.389333L130.844444 358.456889v364.771555c0 34.929778 26.567111 63.715556 60.643556 67.128889l6.883556 0.398223h627.2c37.319111 0 67.584-30.264889 67.584-67.584V358.513778zM825.571556 233.244444H198.485333c-34.304 0-62.577778 25.486222-67.015111 58.595556L512 529.635556l380.586667-237.795556A67.584 67.584 0 0 0 825.628444 233.244444z" fill="#212121" p-id="4806"></path></svg>