<?xml version="1.0" standalone="no"?><!DOCTYPE svg PUBLIC "-//W3C//DTD SVG 1.1//EN" "http://www.w3.org/Graphics/SVG/1.1/DTD/svg11.dtd"><svg t="1729747443974" class="icon" viewBox="0 0 1024 1024" version="1.1" xmlns="http://www.w3.org/2000/svg" p-id="3635" xmlns:xlink="http://www.w3.org/1999/xlink" width="200" height="200"><path d="M122.9 92.6h778.3c31.7 0 57.6 25.9 57.6 57.4v545.8c0 31.5-26 57.4-57.6 57.4H122.9c-31.7 0-57.6-25.9-57.6-57.4V150c-0.1-31.5 25.9-57.4 57.6-57.4z m347.9 536.3c10.2 19.2 34.5 18.9 44.3-0.5l160.3-316.1 39.2 199.6c2.7 13.5 13.1 23.1 25.1 23.1h81.5c14.2 0 25.8-13.3 25.8-29.6s-11.6-29.6-25.8-29.6h-60.9l-49.1-250c-5.1-26.2-35.6-31.6-47.4-8.4L492.4 555.7 385.5 354.6c-9.2-17.3-30.4-19.2-41.7-3.7l-91.7 124.9h-49.4c-14.2 0-25.8 13.2-25.8 29.6s11.6 29.6 25.8 29.6H264c7.6 0 14.8-3.9 19.7-10.5l76.4-104 110.7 208.4z m0 0M867 931.4H156c-23.9 0-43.2-19.3-43.2-43.2 0-23.9 19.3-43.2 43.2-43.2h711c23.9 0 43.2 19.3 43.2 43.2 0 23.9-19.3 43.2-43.2 43.2z" fill="#073A7F" p-id="3636"></path></svg>