<?xml version="1.0" standalone="no"?><!DOCTYPE svg PUBLIC "-//W3C//DTD SVG 1.1//EN" "http://www.w3.org/Graphics/SVG/1.1/DTD/svg11.dtd"><svg t="1729691495210" class="icon" viewBox="0 0 1024 1024" version="1.1" xmlns="http://www.w3.org/2000/svg" p-id="3330" xmlns:xlink="http://www.w3.org/1999/xlink" width="200" height="200"><path d="M958.94295 171.401904A924.895548 924.895548 0 0 1 532.324001 6.397365a37.300367 37.300367 0 0 0-41.52305 0A935.324296 935.324296 0 0 1 64.565883 170.698124a33.845444 33.845444 0 0 0-32.501863 32.757783v270.891516c0 427.322729 403.650112 540.887311 479.850347 549.652577 82.150379-7.101785 479.850347-128.983773 479.850346-549.140737V204.159688a33.845444 33.845444 0 0 0-32.821763-32.757784z m-447.220524 585.097523c-95.970069 0-199.297844-24.312418-199.297843-77.415856a193.60362 193.60362 0 0 1 199.297843-187.333576h-0.70378a115.164083 115.164083 0 0 1-114.716223-112.348961 115.164083 115.164083 0 0 1 115.164083-111.77314l0.575821-0.639801a115.164083 115.164083 0 0 1 118.363085 112.348961 115.164083 115.164083 0 0 1-118.363085 112.348961 193.85954 193.85954 0 0 1 198.338143 187.333576c0.57582 53.167418-102.687974 77.479836-198.658044 77.479836z" fill="#BEC2D0" p-id="3331"></path></svg>