<?xml version="1.0" standalone="no"?><!DOCTYPE svg PUBLIC "-//W3C//DTD SVG 1.1//EN" "http://www.w3.org/Graphics/SVG/1.1/DTD/svg11.dtd"><svg t="1729320317716" class="icon" viewBox="0 0 1024 1024" version="1.1" xmlns="http://www.w3.org/2000/svg" p-id="5487" xmlns:xlink="http://www.w3.org/1999/xlink" width="200" height="200"><path d="M496 64C734.592 64 928 257.408 928 496a430.4 430.4 0 0 1-109.12 287.008l90.368 90.368a32 32 0 0 1 0 45.248l-22.624 22.624a32 32 0 0 1-45.248 0l-93.92-93.92A430.048 430.048 0 0 1 496 928C257.408 928 64 734.592 64 496S257.408 64 496 64z m0 96C310.432 160 160 310.432 160 496S310.432 832 496 832 832 681.568 832 496 681.568 160 496 160zM352 416a32 32 0 0 1 32 32v224a32 32 0 0 1-32 32h-32a32 32 0 0 1-32-32v-224a32 32 0 0 1 32-32h32z m160-128a32 32 0 0 1 32 32v352a32 32 0 0 1-32 32h-32a32 32 0 0 1-32-32V320a32 32 0 0 1 32-32h32z m160 64a32 32 0 0 1 32 32v288a32 32 0 0 1-32 32h-32a32 32 0 0 1-32-32v-288a32 32 0 0 1 32-32h32z" fill="#333333" p-id="5488"></path></svg>