<?xml version="1.0" standalone="no"?><!DOCTYPE svg PUBLIC "-//W3C//DTD SVG 1.1//EN" "http://www.w3.org/Graphics/SVG/1.1/DTD/svg11.dtd"><svg t="1729836778468" class="icon" viewBox="0 0 1102 1024" version="1.1" xmlns="http://www.w3.org/2000/svg" p-id="18193" xmlns:xlink="http://www.w3.org/1999/xlink" width="215.234375" height="200"><path d="M787.928615 406.449231H313.422769a37.730462 37.730462 0 0 0 0 75.382154h474.348308a37.730462 37.730462 0 0 0 0.157538-75.303385z" fill="#8492A6" p-id="18194"></path><path d="M885.602462 154.387692h-87.906462v-49.860923a37.730462 37.730462 0 0 0-75.303385 0v49.782154H379.116308v-49.782154a37.730462 37.730462 0 0 0-75.382154 0v49.782154H215.906462c-82.313846 0-149.267692 66.953846-149.267693 149.346462v558.08c0 82.235077 66.953846 149.188923 149.267693 149.188923h669.696c82.313846 0 149.188923-66.953846 149.188923-149.188923V303.576615c0-82.313846-66.953846-149.267692-149.188923-149.267692z m73.885538 707.347693a74.043077 74.043077 0 0 1-73.885538 73.885538H215.827692a74.043077 74.043077 0 0 1-73.964307-73.885538V303.576615c0-40.802462 33.083077-74.043077 73.964307-74.043077h669.696a74.043077 74.043077 0 0 1 73.885539 74.043077v558.15877z" fill="#8492A6" p-id="18195"></path></svg>