<?xml version="1.0" standalone="no"?><!DOCTYPE svg PUBLIC "-//W3C//DTD SVG 1.1//EN" "http://www.w3.org/Graphics/SVG/1.1/DTD/svg11.dtd"><svg t="1729834877786" class="icon" viewBox="0 0 1024 1024" version="1.1" xmlns="http://www.w3.org/2000/svg" p-id="8657" xmlns:xlink="http://www.w3.org/1999/xlink" width="200" height="200"><path d="M461.8 484.7c23.3-22.3 49.1-42 76.9-58.6-8.9 1.7-18 2.5-27.3 2.5-81.2 0-147-65.8-147-147s65.8-147 147-147 147 65.8 147 147c0 44.4-19.6 84.1-50.7 111.1 26.5-10 54.2-17.5 82.9-22.2 13.3-26.8 20.8-57 20.8-88.9 0-110.5-89.5-200-200-200s-200 89.5-200 200c0 66.9 32.8 126.1 83.3 162.4C204.3 495.4 64.3 669.2 64.3 875.6c0 12.7 0.5 25.3 1.6 37.7h53.2c-1.2-12.4-1.8-25-1.8-37.7 0-200.8 150.3-366.5 344.5-390.9z m240.9 105.8c-52.5 0-95 42.6-95 95s42.6 95 95 95c52.5 0 95-42.6 95-95s-42.5-95-95-95z m45.6 140.6c-12.2 12.2-28.4 18.9-45.6 18.9-17.2 0-33.4-6.7-45.6-18.9-12.2-12.2-18.9-28.4-18.9-45.6s6.7-33.4 18.9-45.6c12.2-12.2 28.4-18.9 45.6-18.9 17.2 0 33.4 6.7 45.6 18.9 12.2 12.2 18.9 28.4 18.9 45.6s-6.7 33.4-18.9 45.6zM944 622.4h-67.6c-2.9-9-6.6-17.6-10.8-26l47.8-47.8c6.1-6.1 7-15 2.1-19.9l-65.1-65.1c-4.9-4.9-13.8-4-19.9 2.1l-47.8 47.8c-8.3-4.2-16.9-7.8-25.9-10.7v-67.6c0-8.6-5.6-15.5-12.6-15.5h-92c-7 0-12.6 7-12.6 15.5v67.6c-9 2.9-17.6 6.6-25.9 10.7l-47.9-47.9c-6-6-14.9-7-19.9-2.1l-65.1 65.1c-4.9 4.9-4 13.8 2.1 19.9l47.9 47.9c-4.2 8.3-7.9 17-10.8 26h-67.6c-8.6 0-15.5 5.6-15.5 12.6v92c0 7 7 12.6 15.5 12.6H520c2.9 9 6.6 17.6 10.8 26l-47.9 47.9c-6 6-7 14.9-2.1 19.9l65.1 65.1c4.9 4.9 13.8 4 19.9-2.1l47.9-47.9c8.3 4.2 17 7.9 26 10.8v67.6c0 8.6 5.6 15.5 12.6 15.5h92c7 0 12.6-7 12.6-15.5v-67.6c9-2.9 17.7-6.6 26-10.8l47.8 47.8c6 6 14.9 7 19.9 2.1l65.1-65.1c4.9-4.9 4-13.8-2.1-19.9l-47.8-47.8c4.2-8.3 7.8-17 10.8-26h67.6c8.6 0 15.5-5.6 15.5-12.6v-92c-0.1-7-7.1-12.6-15.7-12.6z m-15 90.2h-74.9c-4 22.3-12.7 43-25.2 60.8l53 53-38.3 38.3-53-53c-17.9 12.5-38.5 21.3-60.8 25.2v29.7h-0.1l0.1 45.2h-54.1v-74.9c-22.3-4-43-12.7-60.8-25.2l-21 21h-0.1l-32 32-38.3-38.3 31.2-31.2v0.1l21.9-21.9c-12.5-17.9-21.3-38.5-25.2-60.8h-29.7v-0.1l-45.2 0.1v-54.1h74.9c4-22.3 12.7-43 25.2-60.8l-21-21v-0.1l-32-32 38.3-38.3 31.2 31.2h-0.1l21.9 21.9c17.9-12.5 38.5-21.3 60.8-25.2v-74.9h54.1v74.9c22.3 4 43 12.7 60.8 25.2l21.9-21.9h-0.1l31.1-31.1 38.3 38.3-32 32v0.1l-21 21c12.5 17.9 21.3 38.5 25.2 60.8h75v54z" p-id="8658"></path></svg>